<?xml version="1.0" standalone="no"?>
<!DOCTYPE svg PUBLIC "-//W3C//DTD SVG 20010904//EN"
 "http://www.w3.org/TR/2001/REC-SVG-20010904/DTD/svg10.dtd">
<svg version="1.0" xmlns="http://www.w3.org/2000/svg"
 width="1024.000000pt" height="1024.000000pt" viewBox="0 0 1024.000000 1024.000000"
 preserveAspectRatio="xMidYMid meet">

<g transform="translate(0.000000,1024.000000) scale(0.100000,-0.100000)"
fill="#BADA55" stroke="none">
<path d="M5756 9272 c-16 -26 -51 -86 -77 -133 -25 -47 -96 -165 -155 -262
-200 -323 -339 -548 -381 -615 -23 -37 -42 -71 -42 -77 -1 -5 24 15 55 45 62
61 186 242 349 510 28 47 82 135 120 195 208 336 220 357 200 371 -29 21 -38
17 -69 -34z"/>
<path d="M5897 9192 c-19 -31 -60 -106 -90 -167 -30 -60 -75 -135 -99 -165
-25 -30 -86 -120 -136 -200 -50 -80 -116 -184 -146 -231 -31 -47 -56 -91 -56
-97 0 -33 41 3 103 90 70 98 206 325 246 408 19 41 50 91 67 110 50 54 201
278 192 285 -2 1 -13 7 -25 14 -20 10 -24 6 -56 -47z"/>
<path d="M6610 9119 c-88 -10 -311 -58 -330 -71 -13 -8 -12 -9 2 -4 50 15 175
35 259 41 82 5 97 4 102 -9 5 -12 0 -16 -16 -16 -12 0 -30 -7 -40 -15 -18 -13
-17 -14 4 -17 13 -2 -60 -22 -161 -44 -243 -55 -376 -111 -467 -199 -62 -59
-63 -61 -63 -113 0 -59 12 -88 75 -177 68 -97 172 -292 214 -405 56 -148 75
-260 66 -385 -6 -90 -37 -302 -51 -348 -10 -33 -29 -11 -56 67 -39 111 -101
209 -212 333 -24 26 -52 65 -62 85 -10 20 -83 104 -162 187 -223 235 -286 255
-485 156 -117 -58 -187 -120 -210 -185 -9 -25 -30 -106 -48 -180 -26 -110 -60
-210 -72 -210 -1 0 -45 11 -97 25 -109 30 -139 48 -235 146 -78 81 -168 144
-227 160 -22 5 -63 7 -92 4 l-53 -7 -36 50 c-94 128 -258 244 -422 299 -75 26
-91 27 -260 27 -167 0 -186 -2 -268 -27 -120 -37 -235 -97 -344 -178 -163
-123 -265 -303 -308 -547 -34 -189 20 -412 149 -611 43 -66 44 -71 23 -71 -17
0 -19 -2 -7 -9 8 -6 17 -8 21 -6 3 3 14 -4 24 -15 16 -18 16 -20 2 -20 -29 0
-185 -49 -256 -79 -37 -17 -105 -44 -149 -60 -45 -17 -96 -37 -112 -46 -36
-19 -37 -15 -5 40 36 61 55 161 55 296 0 155 -11 205 -72 329 -70 141 -156
229 -278 288 -105 50 -178 66 -300 65 -157 -1 -296 -60 -407 -173 -183 -185
-210 -476 -68 -710 102 -168 260 -283 448 -326 l77 -18 -35 -20 c-69 -39 -235
-276 -340 -485 -66 -133 -106 -245 -140 -397 -98 -437 24 -903 337 -1292 78
-97 208 -227 208 -209 0 25 164 236 258 330 145 147 265 238 232 178 -13 -25
-13 -61 0 -61 22 0 7 -26 -58 -104 -190 -225 -326 -439 -366 -576 -44 -146
-27 -343 40 -479 71 -143 232 -262 393 -291 89 -16 371 -13 462 4 329 63 527
141 890 347 203 116 272 149 254 119 -4 -6 -10 -8 -15 -5 -4 3 -15 -6 -24 -20
-20 -30 -20 -33 -2 -37 12 -2 11 -10 -5 -38 -11 -19 -18 -27 -15 -17 3 9 0 17
-5 17 -6 0 -9 -10 -7 -23 4 -20 1 -23 -19 -19 -19 4 -23 0 -22 -19 0 -13 -4
-43 -9 -66 -6 -28 -6 -43 1 -46 23 -7 -17 -48 -90 -90 -222 -126 -446 -224
-643 -280 -208 -59 -225 -61 -505 -61 -282 -1 -349 8 -511 69 -193 73 -344
223 -400 400 -7 22 -13 31 -13 20 -1 -11 15 -65 35 -120 19 -55 55 -157 79
-227 62 -183 95 -239 195 -338 95 -95 226 -175 350 -214 38 -13 73 -25 76 -29
8 -8 -130 -256 -299 -537 -123 -204 -175 -291 -325 -545 -70 -119 -107 -194
-98 -202 5 -5 138 75 275 167 47 31 313 193 591 360 771 463 1151 693 1235
750 92 62 246 150 261 150 9 0 30 -12 48 -27 48 -41 192 -103 276 -120 41 -8
118 -15 170 -15 85 -1 106 3 193 35 259 94 426 267 498 516 22 80 26 86 67
110 23 14 73 44 110 67 37 22 180 107 317 189 138 81 288 171 335 200 47 28
227 136 400 240 325 194 642 398 674 434 16 17 17 23 6 36 -10 12 -25 15 -64
11 -187 -19 -188 -19 -177 2 16 30 247 179 416 268 66 35 225 133 225 140 0 4
-145 -49 -223 -82 -59 -25 -577 -275 -682 -330 -27 -14 -183 -92 -345 -174
-162 -81 -385 -196 -495 -255 -202 -108 -265 -139 -265 -128 0 3 11 14 25 25
16 13 25 28 23 42 -2 17 2 20 22 18 13 -1 41 4 61 12 20 8 39 13 42 10 3 -3
19 8 35 25 16 17 37 31 46 31 9 0 16 5 16 11 0 7 10 9 25 7 13 -3 22 -1 19 4
-7 11 27 39 38 32 7 -4 55 21 68 36 7 7 63 34 75 36 6 0 18 4 27 8 9 4 22 5
28 1 6 -4 9 -3 8 2 -2 4 0 9 5 11 4 1 15 10 26 20 39 36 66 52 69 42 2 -6 15
-1 29 10 14 11 32 20 39 20 8 0 14 4 14 9 0 12 58 46 94 55 16 4 43 17 60 30
33 24 61 38 86 41 29 5 60 17 60 25 0 4 33 22 73 40 156 70 241 119 301 172
103 90 188 174 204 201 9 15 29 33 44 40 16 6 28 15 28 19 0 5 5 8 11 8 9 0
90 35 141 61 35 17 225 78 265 84 24 4 45 10 48 15 3 4 21 11 41 14 25 5 41
16 52 37 9 16 20 29 24 29 4 0 15 14 23 31 9 17 19 28 23 25 3 -4 13 8 21 26
9 18 24 45 34 60 10 14 24 48 30 75 7 26 17 47 22 46 6 0 16 5 23 13 19 21 9
17 -60 -20 -35 -19 -115 -56 -178 -82 -63 -25 -141 -59 -172 -75 -98 -49 -260
-109 -313 -116 l-50 -6 27 22 c14 11 30 21 36 21 14 0 133 63 128 68 -3 2 -19
-3 -37 -12 -61 -31 -77 -17 -19 16 30 17 84 48 120 68 36 21 139 76 230 123
429 220 479 249 524 296 16 16 41 33 56 36 15 3 42 22 61 41 34 36 131 104
148 104 5 0 11 6 14 14 3 8 22 19 41 26 20 6 34 15 31 20 -3 5 -1 11 5 15 5 3
10 14 10 25 0 10 7 20 15 24 8 3 15 10 15 16 0 6 11 26 25 44 26 34 32 52 15
41 -17 -11 -11 3 13 28 12 14 30 36 40 50 10 16 23 24 32 21 8 -4 15 -1 15 7
0 7 3 9 7 6 3 -4 11 3 17 16 7 13 23 23 39 25 15 2 27 8 27 13 0 5 6 9 14 9
11 0 13 9 9 35 -4 24 -2 35 7 35 8 0 10 9 5 27 -5 21 -4 24 7 15 11 -8 14 -7
14 7 0 16 -4 17 -23 8 -12 -5 -20 -14 -17 -18 3 -5 -6 -9 -20 -9 -14 0 -42
-10 -63 -22 -21 -12 -85 -48 -143 -80 -58 -32 -112 -62 -120 -68 -23 -15 -337
-170 -426 -210 -44 -19 -117 -60 -164 -91 -87 -58 -357 -195 -366 -186 -6 6
61 59 106 83 33 18 109 72 120 85 3 3 12 9 20 12 9 3 4 6 -12 6 -63 2 -12 40
121 92 133 52 168 70 209 108 19 17 66 53 105 79 40 26 113 75 163 110 50 34
95 62 100 62 5 1 22 11 38 24 27 23 28 25 15 55 -11 24 -20 31 -43 31 -16 0
-38 -8 -49 -17 -19 -18 -20 -17 -8 6 18 34 6 82 -34 132 l-34 44 38 11 c45 13
105 53 109 73 7 31 -24 28 -100 -10 -43 -22 -78 -44 -78 -49 0 -6 -3 -9 -7 -8
-8 2 -251 -118 -308 -152 -16 -10 -66 -32 -110 -49 -44 -18 -160 -70 -258
-118 -97 -47 -179 -84 -182 -81 -3 2 3 44 14 92 14 67 25 94 47 117 30 31 225
139 327 180 31 12 64 30 72 39 8 9 41 149 75 320 34 168 69 318 78 335 10 16
31 38 47 49 57 35 501 299 654 388 317 184 502 328 556 431 38 73 28 87 -60
87 -75 0 -158 -24 -309 -90 -61 -26 -169 -69 -241 -95 -306 -109 -460 -172
-659 -269 -116 -57 -310 -152 -431 -211 -121 -59 -236 -113 -256 -120 l-35
-13 -12 192 c-13 229 -7 290 43 417 46 116 63 145 139 238 129 157 274 328
338 399 85 94 102 130 102 208 0 48 -6 71 -27 107 -31 53 -94 109 -158 142
-121 62 -346 123 -534 145 -103 11 -418 11 -515 -1z m502 -185 l48 -6 -28 -41
c-16 -23 -65 -115 -110 -204 -45 -89 -103 -194 -129 -234 -27 -39 -56 -83 -65
-97 -16 -24 -18 -25 -24 -6 -4 10 -24 62 -45 115 -44 112 -67 214 -76 339 -5
73 -3 93 11 114 15 24 22 26 119 29 107 4 219 0 299 -9z m-486 -31 c-4 -16
-13 -77 -21 -138 -8 -60 -22 -153 -30 -205 -8 -52 -15 -110 -15 -127 0 -39 -6
-40 -92 -17 -33 8 -63 13 -65 10 -15 -15 -88 119 -109 199 -19 71 -19 224 1
231 18 7 306 72 323 73 10 1 12 -7 8 -26z m895 -53 c16 -9 14 -19 -35 -123
-29 -61 -61 -133 -71 -159 -27 -72 -75 -120 -160 -162 -41 -21 -77 -42 -81
-47 -3 -5 -10 -9 -16 -9 -6 0 -9 75 -6 228 4 244 10 275 62 326 l24 25 132
-35 c73 -19 141 -39 151 -44z m-1302 -27 c-13 -33 -5 -144 15 -220 13 -50 13
-53 -5 -53 -45 0 -149 53 -189 96 -22 24 -40 47 -40 52 0 16 45 50 135 101 49
28 90 51 92 51 1 0 -2 -12 -8 -27z m1414 -19 c61 -32 97 -65 97 -90 0 -44 -57
-92 -160 -133 -52 -21 -96 -37 -98 -36 -1 1 7 24 19 51 12 27 29 72 39 101 26
74 51 123 62 123 5 0 23 -7 41 -16z m-534 -355 c1 -118 -1 -123 -71 -171 -25
-18 -67 -51 -92 -72 l-47 -39 -24 23 c-13 12 -27 35 -30 51 -6 26 1 38 55 96
62 68 98 134 161 294 l34 85 7 -80 c3 -45 6 -129 7 -187z m-375 -22 c58 -140
46 -190 -35 -138 -24 15 -54 39 -67 53 l-23 25 21 142 c11 78 20 147 21 154 0
7 11 -24 23 -68 13 -44 39 -119 60 -168z m876 31 c-13 -18 -38 -49 -55 -68
-18 -19 -71 -84 -119 -143 -47 -59 -86 -104 -86 -99 0 18 51 167 64 187 27 41
83 88 138 116 31 16 60 33 63 39 4 6 9 9 12 6 3 -3 -5 -20 -17 -38z m-1378
-63 c36 -34 56 -105 63 -225 l5 -95 -48 100 c-46 94 -125 239 -161 294 -15 23
-11 22 48 -11 36 -20 77 -48 93 -63z m274 -57 c27 -17 75 -45 107 -61 31 -15
57 -32 57 -36 0 -11 -109 -115 -115 -109 -25 25 -125 197 -125 215 0 31 17 29
76 -9z m-94 -94 c29 -42 64 -92 77 -111 l25 -35 -33 -61 c-19 -34 -42 -70 -51
-81 -17 -18 -18 -18 -35 8 -12 19 -21 69 -31 179 -15 175 -16 177 -9 177 2 0
28 -34 57 -76z m918 68 c0 -20 -81 -217 -97 -234 -10 -11 -30 -26 -44 -34 -26
-13 -27 -13 -33 22 -4 19 -4 67 0 105 l7 70 76 39 c79 41 91 45 91 32z m-3717
-43 c45 -13 81 -31 104 -53 l36 -33 -84 -22 c-46 -13 -111 -32 -144 -42 -61
-21 -141 -20 -239 1 -45 10 -38 14 -203 -109 -77 -57 -103 -82 -103 -99 0 -12
25 -84 55 -158 54 -135 54 -137 36 -163 -21 -32 -32 -60 -66 -173 l-26 -87
-57 -16 c-31 -9 -83 -24 -114 -34 l-57 -18 -27 26 c-28 27 -24 11 6 -24 10
-11 22 -36 29 -55 19 -57 132 -239 181 -290 37 -40 57 -52 117 -70 51 -15 76
-29 88 -47 13 -19 23 -24 41 -20 16 3 29 -2 37 -12 31 -44 142 -62 258 -41 30
5 70 11 89 14 19 3 36 9 38 14 5 16 72 108 72 99 0 -13 -70 -120 -98 -149 -34
-37 -112 -52 -222 -45 -263 19 -474 141 -605 352 -44 70 -47 79 -56 176 -5 57
-7 109 -5 116 3 7 -6 36 -19 65 -37 83 -50 166 -35 230 26 111 107 258 154
279 19 8 18 9 -5 4 -27 -5 -27 -4 -18 36 15 64 32 90 108 162 192 181 491 257
734 186z m3197 -157 c-12 -15 -51 -57 -87 -95 l-65 -67 -22 27 c-31 38 -45 66
-46 85 0 29 68 95 126 124 30 15 57 31 60 36 3 5 17 -11 30 -37 l25 -46 -21
-27z m290 23 c0 -52 -4 -95 -9 -95 -6 0 -39 -20 -75 -45 -36 -24 -68 -40 -71
-35 -16 26 -43 122 -38 135 5 15 171 134 186 135 4 0 7 -43 7 -95z m-3284 10
c86 -36 167 -119 221 -230 19 -39 19 -41 1 -57 -17 -17 -18 -17 -18 0 -1 15
-2 15 -15 -2 -8 -11 -15 -17 -15 -14 0 3 -15 -8 -33 -25 -60 -58 -115 -102
-150 -122 -83 -47 -147 -97 -153 -121 -4 -15 0 -34 10 -49 24 -37 10 -30 -27
13 -17 20 -59 65 -92 100 l-60 63 29 112 c35 133 37 179 12 235 -12 26 -16 46
-10 52 11 11 199 58 237 59 15 1 43 -6 63 -14z m1629 -11 c14 -6 14 -8 -2 -26
-16 -18 -18 -40 -18 -177 0 -185 -11 -220 -98 -305 -126 -122 -280 -151 -534
-100 -70 14 -157 26 -193 27 -121 1 -220 -52 -273 -148 l-26 -45 40 0 c80 0
34 -28 -109 -65 -115 -30 -143 -44 -89 -45 34 0 37 -2 37 -29 0 -38 -11 -44
-79 -42 -49 1 -60 -2 -81 -24 l-23 -25 27 0 c28 0 47 -16 126 -107 l35 -41
-50 -12 c-84 -20 -168 -49 -203 -70 l-33 -20 29 -30 c29 -28 62 -109 62 -149
0 -27 -19 -36 -115 -56 -44 -9 -84 -20 -89 -25 -5 -5 1 -19 14 -32 80 -85 43
-139 -42 -60 l-41 39 -63 -31 c-34 -17 -63 -36 -63 -43 -1 -6 17 -22 40 -35
23 -12 47 -35 55 -49 7 -15 25 -29 38 -33 14 -3 37 -11 52 -16 l27 -11 -24
-17 c-13 -9 -55 -20 -94 -24 -102 -10 -139 -17 -202 -39 -74 -25 -86 -25 -77
4 15 51 50 72 148 91 58 11 58 12 31 26 -22 12 -28 12 -35 1 -4 -8 -13 -10
-20 -6 -26 16 13 125 45 125 8 0 15 4 15 9 0 5 16 29 36 53 20 23 47 59 60 78
13 19 32 46 44 60 l21 25 -16 -39 c-8 -22 -14 -40 -13 -42 3 -2 179 56 187 62
2 2 -11 21 -29 44 -17 22 -30 47 -27 55 9 22 -23 7 -60 -28 -38 -35 -40 -30
-16 39 24 71 39 91 86 108 23 8 69 26 102 40 33 14 72 26 87 26 15 0 30 5 33
10 3 6 1 10 -5 10 -5 0 -33 15 -60 33 -36 22 -49 37 -46 50 4 15 1 15 -24 -3
-38 -27 -40 -26 -40 17 0 28 8 46 33 73 38 40 58 109 101 362 30 172 46 217
92 257 81 71 207 59 307 -29 35 -30 52 -60 25 -43 -7 4 -21 6 -31 5 -9 -2 -42
9 -72 24 -31 14 -77 28 -103 30 -26 2 -39 1 -29 -2 9 -3 17 -7 17 -8 0 -30
-125 -297 -142 -304 -4 -2 -8 -10 -8 -18 0 -9 -4 -13 -8 -10 -5 3 -17 -31 -27
-75 -10 -44 -22 -82 -26 -85 -5 -3 -9 -10 -9 -16 0 -5 24 3 53 20 55 31 99 46
158 56 31 5 39 13 59 56 31 65 73 107 140 139 49 23 66 26 165 25 65 -1 159
-10 229 -22 147 -27 226 -28 308 -2 112 34 184 95 228 192 25 54 26 157 4 279
-13 71 -14 92 -4 104 13 16 47 20 75 9z m-2185 -35 c0 -29 -160 -168 -211
-184 -11 -4 -19 -16 -19 -28 -1 -20 -2 -19 -16 6 -15 28 -15 29 31 70 48 42
194 146 208 147 4 0 7 -5 7 -11z m2070 7 c0 -3 -25 -19 -56 -36 -93 -54 -127
-101 -149 -205 -18 -82 -73 -230 -96 -258 -19 -22 -19 -22 -3 23 8 25 28 104
44 176 40 183 69 233 165 282 35 19 95 30 95 18z m184 -68 c-3 -4 1 -5 9 -2 8
3 18 0 22 -6 3 -6 1 -9 -6 -8 -7 2 -15 -6 -17 -17 -4 -17 -2 -18 12 -6 24 20
19 7 -6 -15 -12 -10 -18 -13 -14 -6 10 17 -2 15 -20 -3 -12 -12 -12 -15 -2
-15 10 0 9 -3 -2 -10 -28 -18 -32 -10 -28 61 4 81 25 109 45 61 6 -15 9 -30 7
-34z m1722 -25 c-17 -47 -54 -123 -61 -123 -3 0 -5 26 -5 59 0 56 1 59 38 83
20 14 38 25 40 23 1 -1 -4 -20 -12 -42z m-364 -31 c10 -31 18 -63 18 -71 0
-13 -108 -127 -113 -120 -2 2 -20 25 -40 50 -20 25 -37 50 -37 55 0 12 143
155 149 148 3 -2 13 -30 23 -62z m-293 -14 c17 -23 31 -47 31 -53 0 -6 -21
-39 -46 -74 l-47 -62 -29 28 c-46 44 -45 63 8 137 26 36 49 66 50 66 1 0 16
-19 33 -42z m518 -21 c1 -23 5 -52 8 -64 4 -17 -5 -34 -31 -63 -20 -22 -40
-40 -43 -40 -4 0 -18 23 -31 50 l-24 51 54 54 c30 30 57 55 60 55 3 0 6 -19 7
-43z m-1576 -16 c-20 -13 -24 -44 -5 -37 24 9 15 -3 -13 -18 -21 -11 -23 -15
-10 -16 10 0 15 -5 12 -10 -4 -6 -12 -7 -18 -3 -8 5 -8 2 0 -9 7 -8 10 -18 6
-22 -4 -4 1 -4 12 -1 14 4 12 2 -4 -8 -23 -14 -23 -15 -6 -19 19 -3 19 -4 -3
-26 -24 -24 -29 -42 -9 -42 7 -1 5 -6 -6 -14 -10 -8 -14 -16 -8 -17 5 -2 7
-16 4 -31 -3 -15 -10 -25 -15 -22 -6 4 -7 -2 -3 -17 7 -21 6 -22 -9 -10 -15
12 -16 12 -10 -5 7 -18 6 -18 -16 1 l-23 20 16 -31 c16 -30 15 -32 -3 -37 -11
-3 -20 -1 -20 4 0 5 -5 9 -11 9 -7 0 -5 -9 5 -24 15 -24 15 -25 -5 -21 -12 2
-27 9 -35 16 -17 14 -19 -2 -2 -19 9 -9 9 -12 -1 -12 -8 0 -11 -7 -8 -20 3
-11 1 -18 -4 -14 -5 3 -9 11 -9 19 0 7 -7 15 -15 19 -13 5 -13 2 0 -27 l16
-32 -21 28 c-12 15 -26 27 -32 27 -6 0 -3 -10 8 -22 l19 -21 -29 18 -29 19 8
-23 c5 -18 4 -22 -6 -16 -9 6 -11 3 -5 -10 5 -15 4 -16 -8 -6 -8 7 -12 20 -9
29 4 14 3 15 -5 2 -6 -8 -8 -18 -6 -22 3 -4 0 -8 -5 -8 -6 0 -11 6 -11 13 0 8
-7 14 -15 14 -18 0 -20 -14 -2 -20 6 -2 -9 -8 -35 -12 -34 -5 -48 -12 -49 -24
-1 -13 -2 -13 -6 2 -5 18 -5 18 -20 0 -8 -10 -12 -12 -8 -5 3 6 1 12 -4 12 -6
0 -11 -4 -11 -10 0 -5 -4 -10 -9 -10 -5 0 -7 10 -4 23 4 18 3 19 -6 7 -6 -8
-11 -11 -11 -5 0 5 -5 4 -12 -3 -17 -17 -28 -15 -22 6 5 14 3 14 -10 -2 -11
-14 -16 -15 -16 -6 0 11 -3 11 -12 2 -14 -14 -32 -16 -23 -2 3 5 1 18 -5 27
-10 15 -11 15 -6 1 3 -10 -2 -18 -15 -21 -10 -3 -19 -1 -19 5 0 5 -4 7 -9 4
-5 -4 -7 3 -4 14 4 14 14 20 34 20 16 0 29 -3 29 -8 0 -10 154 2 215 18 28 7
87 30 132 51 83 39 130 83 166 154 18 35 37 132 37 185 0 28 5 39 23 48 27 13
47 15 28 3z m835 -82 l-16 -23 0 29 c0 17 3 41 7 55 7 25 7 25 16 -7 7 -24 6
-37 -7 -54z m329 -49 c20 -27 35 -54 33 -59 -1 -5 -22 -30 -46 -55 l-43 -47
-39 43 c-22 24 -39 48 -40 54 0 10 86 114 95 114 2 0 20 -22 40 -50z m-1158
34 c-3 -3 -12 -4 -19 -1 -8 3 -5 6 6 6 11 1 17 -2 13 -5z m227 -61 c-36 -48
-144 -172 -207 -236 -26 -26 -78 -85 -114 -130 -205 -251 -584 -597 -654 -597
-10 0 -38 -9 -61 -19 -24 -11 -51 -22 -61 -25 -13 -4 -17 -12 -13 -28 3 -13 3
-17 0 -10 -7 14 -44 16 -44 2 0 -5 -5 -10 -11 -10 -6 0 -17 -7 -25 -15 -17
-17 -12 -44 18 -90 15 -23 12 -21 -16 9 -87 95 -88 237 -2 420 44 96 50 134 8
54 -13 -24 -20 -34 -16 -23 8 23 8 33 0 90 -4 29 -3 34 3 20 5 -11 10 -31 11
-45 1 -22 3 -20 20 15 11 22 19 34 20 28 0 -8 13 -13 30 -13 17 0 30 5 30 13
0 8 3 8 9 -2 5 -8 16 -11 25 -8 9 4 16 1 16 -4 0 -7 -11 -9 -25 -7 -14 3 -25
2 -25 -2 0 -3 -13 -5 -30 -2 -32 5 -35 1 -21 -26 5 -10 5 -41 0 -76 -9 -54 -7
-64 16 -113 37 -75 104 -104 176 -75 99 39 597 532 879 869 48 57 86 95 88 87
2 -7 -9 -31 -24 -51z m1192 9 l23 -52 -42 -49 c-23 -27 -44 -50 -47 -50 -8 -1
-60 85 -60 98 0 17 82 111 94 108 5 -2 19 -26 32 -55z m-1399 14 c0 -8 -6 -12
-15 -9 -11 5 -11 7 0 14 7 5 13 9 14 9 0 0 1 -6 1 -14z m913 -61 c0 -22 -54
-105 -65 -102 -5 2 -16 15 -22 29 -11 21 -10 33 2 68 24 69 35 77 62 46 13
-15 23 -33 23 -41z m670 -13 c0 -64 -8 -102 -21 -102 -5 0 -19 19 -30 43 l-21
44 28 40 c16 22 32 39 37 36 4 -2 7 -30 7 -61z m1413 6 c8 -28 2 -35 -39 -53
-19 -8 -58 -29 -87 -48 -28 -18 -74 -47 -102 -64 -60 -37 -381 -200 -445 -227
-54 -23 -201 -95 -215 -106 -12 -9 -599 -289 -750 -357 -145 -66 -263 -111
-313 -119 -37 -6 -40 -4 -50 24 -10 30 -9 32 31 55 60 35 231 120 463 230 109
52 368 178 574 280 619 305 841 405 901 407 19 0 28 -6 32 -22z m-3024 -1 c8
-10 7 -14 -4 -14 -8 0 -12 4 -9 8 2 4 -4 10 -13 12 -15 4 -15 5 -2 6 9 0 22
-5 28 -12z m376 -45 c-6 -4 -28 -23 -49 -42 l-40 -35 33 43 c18 23 40 42 49
42 9 0 12 -3 7 -8z m900 -46 l29 -54 -29 -34 c-17 -18 -37 -44 -45 -56 -15
-22 -15 -22 -53 33 l-39 56 47 54 c26 30 50 55 54 55 4 0 20 -24 36 -54z
m-1280 34 c3 -6 -1 -7 -9 -4 -18 7 -21 14 -7 14 6 0 13 -4 16 -10z m1028 -37
l29 -41 -23 -34 c-12 -18 -33 -46 -46 -61 l-23 -28 -20 33 c-29 48 -36 79 -18
89 8 4 23 26 33 49 10 22 23 39 28 37 5 -1 23 -21 40 -44z m-2997 -30 c84
-102 102 -128 81 -120 -12 4 -32 -8 -66 -41 -53 -51 -87 -77 -141 -106 -19
-10 -47 -31 -63 -47 -15 -16 -32 -29 -37 -29 -5 0 -28 -23 -50 -51 -44 -56
-50 -90 -22 -123 29 -35 -122 100 -165 147 -23 25 -49 59 -58 76 -15 30 -15
37 4 113 11 44 31 104 45 133 22 48 28 54 76 70 75 25 185 43 267 44 l73 1 56
-67z m3473 17 c29 -43 29 -46 13 -70 -9 -14 -24 -39 -33 -57 l-17 -32 -36 54
c-20 30 -36 57 -36 60 0 4 13 17 29 31 17 14 33 34 36 45 8 24 6 25 44 -31z
m-1514 20 c3 -5 -1 -10 -10 -10 -9 0 -13 5 -10 10 3 6 8 10 10 10 2 0 7 -4 10
-10z m512 -119 c47 -74 77 -161 68 -192 -3 -9 -38 -34 -78 -54 -78 -41 -121
-72 -207 -148 -30 -27 -64 -53 -75 -59 -44 -24 12 27 152 139 148 118 166 137
154 163 -5 8 -11 35 -15 59 -4 24 -22 71 -41 105 -18 34 -39 75 -44 91 l-11
30 25 -30 c14 -16 47 -63 72 -104z m-4348 67 c11 -10 14 -10 18 0 5 14 53 17
53 3 0 -5 -10 -16 -22 -24 -13 -9 -18 -16 -12 -16 5 -1 20 8 33 20 18 17 29
19 62 14 53 -9 165 -66 214 -109 l40 -34 -29 -31 c-36 -38 -23 -41 16 -4 15
14 29 25 31 22 113 -145 123 -165 93 -198 l-21 -25 28 17 c24 16 28 16 33 2 4
-8 4 -24 1 -35 -3 -11 -2 -20 3 -20 13 0 33 -118 32 -193 0 -104 -2 -117 -19
-117 -12 0 -13 -3 -3 -15 12 -15 5 -55 -10 -55 -5 0 -14 9 -20 20 -6 11 -15
18 -21 15 -5 -4 2 -21 16 -39 16 -21 23 -40 19 -51 -6 -16 -9 -15 -25 6 l-19
24 0 -32 c0 -18 -5 -33 -11 -33 -6 0 -28 -13 -48 -29 -70 -55 -118 -49 -55 8
19 18 32 36 29 41 -10 17 -25 11 -25 -10 0 -11 -6 -20 -14 -20 -8 0 -28 -13
-44 -30 -17 -16 -34 -30 -39 -30 -4 0 -14 -9 -21 -20 -7 -11 -19 -20 -27 -20
-8 0 -15 -7 -15 -16 0 -12 -7 -15 -29 -12 -19 3 -27 0 -25 -7 5 -13 -43 -38
-57 -30 -5 4 -9 12 -9 18 0 7 -12 20 -25 30 l-25 18 21 -36 21 -35 -24 -2
c-35 -2 -122 4 -131 9 -4 3 -2 12 5 20 12 15 11 15 -10 2 -20 -13 -28 -11 -79
16 -31 16 -68 40 -81 52 -14 13 -29 23 -33 23 -15 0 -48 43 -42 53 4 6 0 8
-11 4 -11 -5 -25 2 -42 20 -30 32 -30 40 -1 64 l22 20 -27 -16 c-29 -18 -48
-13 -48 11 0 8 -4 14 -8 14 -12 0 -40 54 -35 68 3 7 18 19 35 28 16 8 27 18
25 21 -3 3 -19 -4 -36 -16 -16 -12 -32 -17 -35 -12 -29 46 -45 220 -30 313 l7
37 19 -25 c28 -35 35 -22 8 14 l-22 30 26 57 c27 60 126 171 183 207 19 11 35
19 36 17 2 -2 9 -12 16 -21 11 -15 11 -21 1 -33 -7 -9 -10 -19 -6 -23 4 -4 14
2 21 12 12 16 12 22 0 40 -8 11 -15 26 -15 33 0 23 30 14 42 -12 6 -14 15 -25
20 -25 11 0 10 17 -2 25 -5 3 -10 13 -10 21 0 17 36 19 43 2 3 -8 6 -6 6 5 1
22 51 24 51 1 0 -8 5 -12 11 -9 6 4 8 13 5 21 -7 18 35 19 53 2z m4112 -35
c-16 -27 -43 -85 -61 -131 -18 -45 -34 -81 -37 -79 -7 8 58 164 87 211 39 61
48 60 11 -1z m545 -24 c-11 -26 -15 -29 -15 -13 -1 12 5 36 11 55 10 28 13 30
16 13 2 -12 -4 -37 -12 -55z m840 6 c4 -21 3 -27 -4 -20 -6 6 -14 24 -18 40
-4 21 -3 27 4 20 6 -5 14 -23 18 -40z m-520 -59 l28 -53 -49 -67 c-27 -36 -50
-66 -52 -66 -1 0 -16 27 -33 60 l-31 61 46 52 c25 28 45 55 45 59 0 23 21 2
46 -46z m254 -13 c12 -25 19 -51 16 -58 -9 -24 -71 -104 -81 -104 -13 -1 -48
54 -63 96 -10 31 -8 35 35 83 52 58 58 56 93 -17z m221 -32 c12 -31 22 -72 23
-91 1 -31 -2 -35 -26 -38 -28 -3 -58 28 -92 94 -15 31 -15 33 14 69 17 21 30
43 30 49 1 20 30 -27 51 -83z m-2364 63 c-3 -3 -12 -4 -19 -1 -8 3 -5 6 6 6
11 1 17 -2 13 -5z m1663 -59 c0 -14 -31 -56 -84 -112 -29 -32 -30 -32 -43 -13
-13 18 -10 29 33 107 l47 87 23 -28 c13 -15 24 -33 24 -41z m-1576 46 c4 -5
-8 -7 -26 -4 -44 7 -49 13 -10 13 17 0 33 -4 36 -9z m46 -72 c0 -4 -9 -7 -19
-6 -11 0 -18 4 -16 7 6 9 35 8 35 -1z m1604 -107 c46 -91 59 -101 94 -75 15
10 46 47 69 82 l43 62 27 -46 c16 -26 36 -60 45 -76 26 -43 59 -39 112 15 23
25 50 59 58 76 l15 31 42 -65 c24 -36 51 -68 61 -71 25 -8 77 20 85 45 8 24
18 25 36 4 11 -14 9 -19 -11 -35 -60 -45 -777 -395 -788 -384 -2 2 2 31 9 64
17 86 6 163 -33 242 l-33 66 27 11 c14 5 43 34 64 66 20 31 38 56 40 56 2 0
19 -31 38 -68z m-2124 18 c0 -5 -5 -10 -11 -10 -5 0 -7 5 -4 10 3 6 8 10 11
10 2 0 4 -4 4 -10z m263 -57 c-13 -2 -35 -2 -50 0 -16 2 -5 4 22 4 28 0 40 -2
28 -4z m1562 -45 c57 -50 95 -125 95 -187 0 -79 -20 -121 -93 -196 l-68 -70
31 55 c17 30 40 74 51 98 24 51 37 142 20 142 -6 0 -11 -6 -11 -14 0 -7 -22
-47 -49 -87 -46 -71 -127 -156 -221 -231 -94 -75 -680 -454 -680 -440 0 6 151
119 198 147 25 15 234 171 343 256 109 84 235 197 201 180 -12 -7 -47 -35 -78
-64 -49 -46 -106 -89 -224 -171 -19 -13 -49 -37 -66 -53 -67 -61 -85 -71 -122
-68 -52 4 -132 27 -132 37 0 5 -4 7 -9 3 -5 -3 -12 -1 -16 5 -3 5 1 10 9 10 9
0 16 5 16 12 0 6 8 21 18 32 11 13 12 17 2 10 -33 -24 -292 -237 -351 -289
-35 -31 -110 -87 -166 -126 -57 -38 -103 -73 -103 -76 0 -4 3 -3 7 0 3 4 13 1
21 -6 13 -10 14 -9 7 3 -8 13 -7 13 8 1 13 -10 15 -23 11 -51 -5 -29 -3 -38
11 -44 17 -6 17 -8 -1 -27 -10 -11 -24 -17 -31 -14 -8 2 -12 1 -9 -3 9 -15 -9
-28 -159 -119 -170 -104 -239 -137 -271 -129 -12 3 -24 2 -26 -4 -2 -5 -13
-11 -25 -13 -13 -2 -41 -18 -63 -37 -21 -18 -56 -43 -77 -55 -21 -12 -96 -55
-168 -97 -158 -92 -357 -178 -570 -248 -88 -29 -180 -62 -205 -73 -25 -10 -94
-32 -155 -47 -112 -29 -112 -39 1 -19 34 6 71 9 81 7 16 -4 -66 -21 -252 -53
-38 -6 -72 -8 -75 -4 -3 5 -53 2 -110 -5 -103 -14 -103 -14 -32 -13 39 1 72
-1 72 -5 0 -11 -86 -10 -195 2 -49 5 -92 7 -94 4 -9 -9 41 -43 94 -63 28 -11
42 -20 32 -20 -29 -1 -113 46 -141 79 -30 37 -31 43 -11 64 17 16 42 22 150
31 243 22 694 145 955 262 310 138 454 232 735 479 93 81 240 188 345 251 47
28 132 78 189 112 91 55 454 341 746 589 147 125 357 291 433 342 92 62 114
63 177 8z m1706 5 c6 -17 6 -49 -1 -97 -54 -383 -90 -592 -105 -615 -2 -5 -33
-18 -67 -31 -35 -12 -107 -45 -160 -72 -54 -27 -113 -52 -133 -55 -32 -5 -35
-8 -46 -62 -6 -31 -25 -114 -41 -186 -16 -71 -38 -168 -49 -215 -20 -90 -59
-345 -79 -518 l-12 -102 -47 -21 c-25 -12 -86 -38 -136 -59 -157 -65 -137 -40
-163 -213 -28 -189 -46 -266 -85 -342 -61 -121 -103 -154 -302 -233 -100 -40
-175 -64 -175 -56 0 7 79 44 94 44 8 0 16 3 18 8 2 4 18 17 36 28 58 36 219
192 256 249 21 30 46 81 57 113 24 69 49 217 49 290 0 28 5 52 10 52 19 0 244
111 286 142 36 25 43 37 47 72 10 92 140 796 161 870 8 28 19 76 26 107 l11
57 47 4 c51 5 84 19 242 103 58 30 108 63 112 73 4 9 7 35 7 58 1 41 35 252
72 444 19 99 45 190 55 190 3 0 9 -12 15 -27z m-3393 -49 c12 -1 22 4 23 10 0
6 4 2 8 -9 5 -11 4 -28 -1 -38 -5 -10 -7 -21 -4 -25 3 -3 6 0 6 7 0 7 4 10 10
6 13 -8 -10 -56 -24 -48 -7 4 -7 1 1 -7 9 -9 9 -16 0 -25 -13 -14 -47 -8 -48
9 0 6 -4 2 -8 -9 -8 -20 -8 -20 -15 2 -9 30 -34 37 -32 10 2 -27 -14 -67 -26
-67 -5 0 -6 10 -2 23 8 26 2 22 -16 -12 -8 -15 -8 -21 -1 -17 6 4 14 0 18 -9
5 -13 9 -10 21 16 8 19 14 42 14 52 -1 14 8 8 34 -19 39 -43 42 -54 14 -49
-12 2 -18 0 -15 -6 4 -5 11 -6 17 -3 8 5 9 1 3 -12 -4 -10 -7 -30 -7 -44 1
-22 0 -23 -7 -5 -5 11 -6 27 -4 35 4 12 3 12 -5 2 -5 -7 -7 -24 -4 -38 4 -23
-9 -31 -43 -24 -5 1 -5 -4 1 -10 9 -9 17 -9 34 0 29 16 38 5 15 -20 -15 -17
-19 -18 -32 -4 -9 8 -22 13 -30 9 -11 -4 -13 -1 -9 10 3 10 2 13 -5 10 -6 -4
-8 -13 -5 -21 5 -13 -6 -19 -27 -15 -5 1 -6 -3 -2 -8 3 -6 13 -7 23 -4 15 6
15 5 3 -10 -10 -13 -11 -20 -2 -31 9 -10 8 -16 -4 -26 -13 -11 -14 -10 -9 4 5
12 2 15 -10 10 -9 -3 -13 -11 -10 -16 4 -6 0 -14 -7 -19 -9 -6 -2 -7 18 -3 31
6 32 5 30 -24 -2 -31 -2 -31 -23 -11 -24 22 -30 24 -31 7 0 -7 -4 -22 -9 -32
-6 -16 -4 -18 10 -13 14 5 17 3 12 -8 -4 -11 1 -15 20 -15 14 0 23 4 19 10 -4
6 -11 8 -16 5 -5 -4 -9 1 -9 10 0 11 -5 15 -14 12 -10 -4 -13 -1 -9 9 5 13 10
11 29 -7 23 -22 29 -18 25 17 -2 18 29 26 35 9 4 -8 11 -15 16 -15 6 0 5 6 -2
15 -8 9 -8 15 -2 15 6 0 12 7 14 15 2 10 7 7 15 -10 6 -14 8 -23 3 -20 -10 6
-22 -24 -14 -36 3 -5 1 -9 -5 -9 -5 0 -12 6 -14 13 -4 9 -8 8 -17 -3 -9 -12
-10 -10 -5 10 l6 25 -14 -24 c-13 -22 -13 -26 2 -40 9 -9 11 -12 4 -7 -28 19
-22 -3 7 -28 17 -14 27 -26 21 -26 -5 0 -21 11 -35 25 -28 28 -48 33 -40 10 4
-8 10 -13 14 -10 4 3 13 -1 19 -8 8 -11 6 -13 -11 -12 -12 1 -27 10 -32 20 -6
11 -17 25 -23 33 -11 11 -13 11 -13 0 0 -11 -2 -11 -9 0 -6 10 -10 9 -14 -7
-3 -12 -1 -19 3 -16 5 3 14 -3 20 -12 11 -17 11 -17 6 0 -3 9 -1 17 4 17 6 0
10 -7 10 -15 0 -8 3 -15 8 -15 4 0 15 -12 26 -26 18 -26 18 -26 -3 -15 -11 7
-21 8 -21 2 0 -5 7 -11 15 -15 8 -3 15 -11 14 -18 0 -10 -2 -10 -6 0 -2 6 -9
12 -15 12 -6 0 -7 -7 -4 -16 3 -8 2 -12 -4 -9 -5 3 -8 22 -5 41 2 19 0 34 -6
34 -6 0 -7 -4 -4 -10 3 -5 1 -10 -4 -10 -6 0 -11 4 -11 9 0 14 -30 7 -42 -10
-7 -11 -9 -9 -5 9 3 12 2 22 -2 22 -4 0 -12 -10 -18 -22 -9 -21 -7 -23 18 -25
16 -1 31 2 34 8 10 16 25 0 25 -27 0 -15 -4 -23 -11 -19 -6 4 -8 13 -5 21 3 8
3 14 0 14 -2 0 -9 -10 -14 -22 -8 -21 -9 -21 -10 -3 0 17 -2 17 -10 5 -9 -13
-10 -13 -10 0 0 13 -1 13 -10 0 -5 -8 -10 -10 -10 -5 0 6 -21 11 -47 11 -32 1
-50 7 -60 20 -7 10 -13 12 -13 6 0 -7 -10 -12 -22 -11 -13 0 -17 3 -10 6 15 6
16 43 1 43 -5 0 -7 5 -4 10 4 6 12 7 18 3 8 -4 7 -1 -1 9 -9 11 -10 18 -2 23
6 3 8 10 5 15 -3 5 4 12 16 15 16 5 18 9 9 15 -9 6 -7 11 8 19 14 7 19 17 15
28 -5 13 -2 15 12 10 15 -6 16 -5 5 8 -8 10 -9 15 -1 15 6 0 10 6 9 13 -2 6 3
11 11 9 8 -2 11 3 8 11 -3 7 4 19 14 26 11 6 17 16 14 21 -3 6 4 10 17 10 18
0 20 2 8 10 -12 8 -11 12 6 32 11 13 30 34 42 47 12 14 22 28 22 33 0 4 8 8
18 9 16 0 16 1 0 7 -15 6 -14 13 14 61 27 46 33 51 39 35 7 -17 8 -17 8 4 1
12 0 24 -1 27 -2 3 12 15 30 26 17 12 32 28 32 37 0 10 3 13 8 7 4 -5 17 -11
30 -11z m82 0 c0 -8 -5 -12 -10 -9 -6 4 -8 11 -5 16 9 14 15 11 15 -7z m240
-8 c0 -3 -4 -8 -10 -11 -5 -3 -10 -1 -10 4 0 6 5 11 10 11 6 0 10 -2 10 -4z
m-93 -36 c4 -12 3 -13 -5 -1 -6 8 -17 11 -26 8 -9 -4 -16 -2 -16 4 0 16 43 6
47 -11z m40 4 c-3 -3 -12 -4 -19 -1 -8 3 -5 6 6 6 11 1 17 -2 13 -5z m40 0
c-3 -3 -12 -4 -19 -1 -8 3 -5 6 6 6 11 1 17 -2 13 -5z m-89 -22 c8 -5 -1 -8
-23 -8 -19 1 -35 4 -35 9 0 9 42 9 58 -1z m58 -21 c-4 -6 -13 -11 -19 -11 -8
0 -7 3 2 9 8 5 10 14 6 22 -6 11 -5 11 5 2 7 -6 9 -16 6 -22z m-86 -24 c11 -4
10 -6 -5 -6 -17 -1 -18 -3 -5 -12 12 -8 12 -10 1 -7 -8 2 -16 15 -18 29 -2 13
0 19 4 13 5 -6 15 -14 23 -17z m27 7 c3 -8 1 -20 -5 -26 -8 -8 -9 -5 -6 10 4
14 0 22 -13 25 -17 4 -17 5 0 6 10 0 20 -6 24 -15z m-213 -57 c17 -13 18 -15
2 -43 -15 -26 -15 -15 2 25 3 8 1 12 -4 9 -5 -4 -18 0 -29 8 -14 11 -15 14 -4
14 8 0 23 -6 33 -13z m200 -19 c-5 -7 -2 -9 9 -5 11 4 14 2 11 -7 -4 -11 -10
-11 -29 -2 -21 9 -22 12 -7 18 24 9 24 9 16 -4z m2951 -75 c-7 -38 -18 -109
-25 -159 l-12 -91 -37 -13 c-45 -16 -192 -80 -288 -126 -39 -19 -76 -34 -81
-34 -10 0 -14 -21 -57 -275 -14 -82 -43 -242 -65 -355 -22 -113 -47 -248 -56
-300 -9 -52 -18 -104 -20 -116 -3 -16 -38 -37 -143 -87 -77 -37 -142 -71 -146
-77 -13 -22 -26 -9 -21 23 27 161 130 765 145 852 11 61 23 127 26 148 l6 38
-33 -15 c-18 -8 -91 -42 -162 -76 -70 -33 -130 -59 -133 -56 -15 15 8 281 26
299 8 8 47 26 311 147 63 28 174 79 245 113 244 113 501 225 521 226 8 1 7
-18 -1 -66z m-3235 -93 c0 -5 7 -16 16 -24 12 -13 13 -16 1 -16 -7 0 -19 -11
-25 -25 -6 -14 -7 -25 -2 -25 5 0 12 9 15 20 6 20 45 29 45 10 0 -5 -3 -9 -7
-9 -20 3 -31 -3 -35 -19 -6 -23 -37 -25 -40 -3 -3 32 -4 36 -11 49 -5 6 -5 18
0 25 4 6 8 15 9 20 1 4 2 9 3 12 2 8 31 -7 31 -15z m-2290 -198 c0 -11 -39
-47 -67 -61 -35 -18 -27 0 14 36 39 33 53 40 53 25z m-132 -14 c-7 -19 -38
-22 -38 -4 0 10 9 16 21 16 12 0 19 -5 17 -12z m-58 -34 c0 -8 -4 -12 -10 -9
-5 3 -10 10 -10 16 0 5 5 9 10 9 6 0 10 -7 10 -16z m787 -64 c88 -22 249 -98
278 -131 l20 -22 -31 16 c-18 9 -46 19 -64 22 -19 3 -38 9 -43 12 -6 3 -7 1
-3 -5 4 -7 1 -12 -6 -12 -8 0 -31 -9 -53 -20 -22 -11 -47 -20 -57 -20 -24 0
-34 -21 -16 -34 13 -9 13 -13 2 -24 -11 -10 -15 -7 -20 15 -9 44 -12 50 -13
26 -1 -13 -5 -23 -9 -23 -12 0 -33 -49 -27 -61 3 -5 -1 -6 -10 -3 -11 5 -14 2
-8 -12 4 -12 3 -15 -5 -10 -7 4 -12 2 -12 -4 0 -6 -5 -8 -12 -3 -27 16 -40 12
-34 -12 3 -13 0 -27 -7 -33 -9 -8 -12 0 -10 36 l1 47 -7 -40 c-5 -22 -9 -34
-10 -26 -1 11 -4 11 -16 1 -8 -7 -15 -17 -15 -22 0 -6 7 -8 15 -4 9 3 15 0 15
-9 0 -9 -6 -12 -15 -9 -11 5 -14 1 -10 -12 3 -11 0 -9 -7 4 -9 18 -9 28 0 43
7 10 12 24 11 31 0 7 -4 3 -10 -10 -5 -13 -13 -21 -17 -18 -5 3 -7 -7 -5 -22
3 -23 2 -24 -6 -7 -9 19 -10 18 -10 -5 -1 -14 -5 -20 -9 -15 -14 19 -27 13
-29 -12 -1 -19 1 -22 8 -12 5 8 9 9 9 3 0 -5 -6 -16 -12 -23 -11 -11 -10 -13
4 -8 15 5 16 4 6 -13 -15 -23 -28 -17 -28 13 0 12 -5 29 -10 37 -8 11 -9 7 -4
-15 3 -16 7 -36 10 -42 3 -12 -19 -17 -58 -14 -12 2 -15 -4 -11 -21 4 -19 3
-20 -7 -8 -9 12 -11 9 -7 -17 2 -18 0 -33 -5 -33 -4 0 -9 10 -9 23 -2 22 -2
22 -6 0 -2 -12 -11 -27 -20 -35 -15 -12 -15 -11 -2 9 12 20 11 25 -4 38 -9 8
-15 12 -12 8 3 -3 -7 -14 -21 -24 -16 -10 -22 -19 -15 -23 16 -10 13 -26 -3
-20 -8 3 -16 14 -19 25 -3 12 -11 17 -21 13 -9 -3 -13 -11 -9 -17 4 -6 0 -8
-10 -4 -9 3 -16 3 -16 -1 3 -19 -2 -29 -16 -29 -8 0 -15 7 -16 16 0 11 -2 12
-6 3 -3 -7 3 -22 13 -33 9 -10 14 -22 11 -26 -4 -3 -7 -1 -7 5 0 18 -28 14
-40 -5 -11 -17 -11 -17 -6 0 3 10 2 16 -2 14 -4 -3 -18 -1 -31 4 -20 8 -22 11
-10 27 13 15 12 16 -4 3 -9 -8 -15 -16 -12 -19 3 -3 -5 -12 -17 -19 -13 -7
-17 -12 -10 -13 18 0 15 -20 -4 -20 -8 0 -12 -4 -9 -10 3 -5 1 -10 -5 -10 -6
0 -9 -4 -5 -9 3 -5 0 -13 -6 -17 -8 -4 -9 -3 -5 4 4 7 2 12 -3 12 -6 0 -11 -4
-11 -10 0 -5 -5 -10 -11 -10 -5 0 -7 5 -4 10 3 6 4 10 0 10 -3 0 -10 -11 -15
-25 -5 -14 -15 -24 -22 -23 -7 2 -12 -3 -10 -10 1 -8 -2 -11 -8 -7 -6 3 -8 11
-5 16 6 9 -10 14 -30 9 -5 -1 -15 -3 -22 -3 -6 0 -9 -9 -7 -20 2 -15 0 -17 -7
-10 -8 8 -10 60 -7 160 4 125 9 160 31 227 30 93 21 90 -17 -5 -43 -110 -56
-184 -56 -321 0 -123 -1 -127 -22 -134 -13 -4 -25 -6 -27 -5 -2 2 -8 -4 -13
-13 -5 -9 -14 -13 -20 -10 -8 5 -9 1 -5 -10 6 -14 4 -15 -14 -5 -12 6 -19 7
-15 1 3 -5 0 -12 -8 -15 -7 -3 -12 -18 -11 -36 1 -17 0 -31 -1 -31 -7 0 -47
85 -64 136 -16 46 -17 58 -4 116 43 210 161 389 347 529 123 93 243 149 372
175 95 18 307 10 412 -16z m2623 26 c0 -2 -8 -10 -17 -17 -16 -13 -17 -12 -4
4 13 16 21 21 21 13z m-1610 -41 c7 -8 19 -15 28 -15 8 0 13 -3 9 -6 -8 -8
-77 15 -77 27 0 14 26 11 40 -6z m660 -6 c0 -5 -10 -8 -22 -8 -18 1 -19 2 -5
6 9 2 14 9 11 15 -4 7 -2 8 4 4 7 -4 12 -11 12 -17z m2130 -18 c0 -5 -14 -90
-31 -188 -16 -98 -37 -221 -45 -273 -8 -52 -28 -165 -44 -250 -16 -85 -39
-226 -50 -313 -11 -87 -27 -190 -35 -228 -8 -39 -15 -81 -15 -95 0 -16 -8 -27
-22 -33 -13 -5 -75 -34 -138 -65 -103 -49 -117 -54 -136 -42 -23 15 -118 150
-364 516 l-26 38 -12 -47 c-6 -25 -27 -143 -47 -261 -19 -118 -45 -276 -58
-350 l-23 -134 -95 -41 c-53 -22 -119 -52 -149 -68 -29 -15 -54 -26 -56 -25
-1 2 6 53 17 113 10 61 24 139 29 175 6 36 26 157 44 270 19 113 38 234 44
270 46 295 98 533 120 553 16 15 195 97 210 97 4 0 36 -41 72 -92 36 -50 98
-136 139 -192 41 -55 86 -119 100 -142 47 -75 96 -144 102 -144 4 0 17 55 29
123 11 67 30 169 41 227 11 58 32 184 47 280 l28 175 55 28 c109 55 254 125
262 126 4 1 7 -3 7 -8z m-2393 -7 c-3 -3 -12 -4 -19 -1 -8 3 -5 6 6 6 11 1 17
-2 13 -5z m116 -21 c-7 -2 -21 -2 -30 0 -10 3 -4 5 12 5 17 0 24 -2 18 -5z
m60 -10 c-7 -2 -21 -2 -30 0 -10 3 -4 5 12 5 17 0 24 -2 18 -5z m-2501 -50
c-117 -109 -275 -359 -345 -548 -59 -158 -71 -234 -71 -445 -1 -172 2 -204 22
-273 28 -97 86 -213 146 -294 60 -80 266 -275 334 -316 58 -35 65 -53 26 -63
-40 -10 -91 10 -192 77 -163 109 -276 254 -355 454 -51 131 -67 221 -67 383 0
241 42 419 150 637 66 134 143 259 219 355 56 71 70 80 130 80 l55 0 -52 -47z
m2278 32 l75 -14 -65 5 c-74 6 -152 22 -110 22 14 0 59 -6 100 -13z m287 9
c-3 -3 -12 -4 -19 -1 -8 3 -5 6 6 6 11 1 17 -2 13 -5z m50 -10 c-3 -3 -12 -4
-19 -1 -8 3 -5 6 6 6 11 1 17 -2 13 -5z m-214 -21 c-7 -2 -21 -2 -30 0 -10 3
-4 5 12 5 17 0 24 -2 18 -5z m114 -19 c-3 -3 -12 -4 -19 -1 -8 3 -5 6 6 6 11
1 17 -2 13 -5z m-1603 -100 c3 -8 2 -12 -4 -9 -6 3 -10 1 -10 -6 0 -7 -3 -10
-6 -6 -7 6 2 37 10 37 2 0 7 -7 10 -16z m3327 -86 c-13 -68 -59 -218 -71 -231
-4 -4 -27 16 -51 45 -55 65 -93 118 -87 123 2 2 26 9 53 16 74 17 95 30 129
75 17 23 33 40 35 38 2 -2 -2 -32 -8 -66z m-2530 44 c-5 -10 -40 -28 -78 -41
-37 -13 -80 -30 -95 -38 -25 -12 -28 -12 -28 3 0 27 59 74 94 75 17 1 42 5 56
9 46 15 62 12 51 -8z m222 -19 c-13 -2 -33 -2 -45 0 -13 2 -3 4 22 4 25 0 35
-2 23 -4z m183 -34 c61 -19 94 -40 94 -60 0 -5 -10 0 -22 11 -22 21 -132 59
-172 61 -11 0 -30 5 -41 10 -34 16 72 -1 141 -22z m4344 -29 c0 -15 -49 -59
-85 -77 -23 -11 -17 -2 25 36 61 56 60 55 60 41z m431 -33 c-10 -9 -11 -8 -5
6 3 10 9 15 12 12 3 -3 0 -11 -7 -18z m-6181 -1 c0 -2 -7 -6 -15 -10 -8 -3
-15 -1 -15 4 0 6 7 10 15 10 8 0 15 -2 15 -4z m139 1 c-2 -1 -13 -9 -24 -17
-19 -14 -19 -14 -6 3 7 9 18 17 24 17 6 0 8 -1 6 -3z m1421 -14 c0 -10 -9 -29
-20 -43 l-20 -25 18 42 c19 47 22 51 22 26z m-460 -18 l1 20 9 -20 9 -20 0 20
c1 17 3 17 11 5 9 -13 10 -13 11 0 0 8 5 0 11 -19 5 -19 13 -30 16 -24 5 7 12
5 22 -5 13 -14 12 -15 -3 -9 -11 4 -17 1 -17 -9 0 -8 4 -13 9 -9 5 3 13 1 16
-5 4 -6 1 -9 -7 -8 -8 2 -12 -5 -11 -20 2 -19 1 -21 -11 -10 -8 7 -12 16 -10
19 2 3 -7 4 -19 3 -12 -1 -27 -3 -34 -3 -6 -1 -15 -16 -19 -33 -4 -18 -9 -27
-12 -19 -3 10 -6 10 -12 2 -4 -7 -16 -13 -26 -13 -17 -2 -20 -8 -17 -37 l3
-36 -20 30 c-18 28 -20 28 -20 8 0 -13 5 -23 10 -23 6 0 5 -6 -2 -14 -11 -12
-16 -10 -30 13 -16 23 -18 24 -19 6 l0 -20 -10 20 c-8 17 -9 16 -6 -7 2 -15 0
-25 -4 -22 -5 3 -9 -3 -10 -13 0 -16 -1 -16 -10 2 -8 17 -9 16 -6 -7 2 -15 0
-25 -4 -22 -5 3 -9 -3 -9 -13 0 -15 -2 -16 -10 -3 -8 13 -10 12 -10 -3 0 -10
-4 -15 -10 -12 -5 3 -10 1 -10 -4 0 -6 -3 -10 -7 -10 -29 5 -53 -3 -53 -17 0
-8 -4 -12 -10 -9 -5 3 -10 1 -10 -6 0 -7 -3 -9 -7 -6 -3 4 -12 -1 -20 -11 -13
-16 -14 -16 -9 0 3 12 1 15 -9 12 -8 -3 -11 -12 -8 -20 3 -8 0 -14 -6 -14 -18
0 -19 0 -48 -15 -14 -8 -30 -12 -35 -9 -4 3 -8 0 -8 -5 0 -6 -6 -11 -12 -11
-7 0 -25 -6 -40 -14 -20 -11 -28 -11 -32 -3 -2 7 -5 5 -5 -4 -1 -9 -12 -21
-26 -27 -21 -10 -25 -9 -25 4 0 8 -5 12 -10 9 -6 -4 -8 -10 -5 -15 3 -5 1 -11
-5 -15 -5 -3 -10 -1 -10 6 0 9 -4 8 -12 -2 -7 -8 -92 -41 -188 -73 -162 -54
-206 -73 -197 -83 9 -8 232 59 457 137 318 111 382 131 387 126 3 -3 -12 -9
-33 -15 -22 -6 -102 -34 -179 -62 -255 -93 -469 -167 -563 -195 -106 -31 -119
-45 -128 -137 -8 -79 -13 -87 -31 -53 -17 32 -12 73 16 139 19 44 58 80 236
217 173 133 308 245 412 342 96 90 105 96 170 112 108 26 263 45 263 32 0 -6
4 -5 9 3 7 11 9 11 14 0 4 -9 6 -7 7 6 l1 20 9 -20 9 -20 1 20z m381 -8 c-10
-9 -11 -8 -5 6 3 10 9 15 12 12 3 -3 0 -11 -7 -18z m-1599 -85 c-6 -2 -12 -11
-12 -20 -1 -15 -2 -14 -12 2 -8 15 -7 21 5 28 9 5 14 16 11 26 -2 9 1 6 8 -7
10 -19 10 -25 0 -29z m30 41 c-6 -2 -9 -10 -6 -15 4 -7 2 -8 -4 -4 -18 11 -14
26 6 25 10 0 12 -3 4 -6z m-114 -45 c-2 -6 -12 -12 -21 -14 -9 -1 -15 2 -11 7
3 5 10 7 15 4 5 -4 9 -1 9 4 0 6 3 11 6 11 3 0 4 -5 2 -12z m1342 -13 c13 8
20 -9 9 -25 -5 -9 -9 -10 -9 -3 0 6 -9 9 -21 6 -14 -4 -18 -11 -14 -22 5 -12
3 -13 -5 -5 -7 7 -9 21 -5 34 6 18 9 20 16 9 7 -11 9 -9 10 6 0 11 3 14 6 7 2
-6 9 -10 13 -7z m-1423 -15 c-1 -11 -5 -20 -9 -20 -10 0 -10 4 -2 24 8 22 13
20 11 -4z m60 -22 c-3 -8 -6 -5 -6 6 -1 11 2 17 5 13 3 -3 4 -12 1 -19z m-90
-10 c-3 -8 -6 -5 -6 6 -1 11 2 17 5 13 3 -3 4 -12 1 -19z m1386 -27 c4 -15 0
-19 -15 -16 -12 3 -23 7 -27 11 -3 4 2 4 12 1 11 -4 17 -1 17 8 0 21 7 19 13
-4z m1674 -13 c-2 -18 -14 -105 -26 -193 -13 -88 -34 -211 -47 -275 -14 -63
-33 -171 -44 -240 -10 -69 -28 -186 -40 -260 -12 -74 -27 -186 -34 -249 l-11
-114 -35 -12 c-19 -7 -85 -37 -147 -68 -100 -50 -113 -54 -118 -37 -6 19 6
112 60 445 19 116 39 255 45 310 13 123 105 584 119 598 14 14 253 126 270
127 9 0 12 -9 8 -32z m-3163 1 c-3 -5 -9 -7 -14 -4 -4 3 -11 -1 -13 -7 -3 -7
-6 -3 -6 9 -1 16 3 20 19 16 11 -3 17 -9 14 -14z m-204 -109 c0 -5 -7 -10 -15
-10 -8 0 -15 5 -15 10 0 6 7 10 15 10 8 0 15 -4 15 -10z m6131 -48 c60 -53 49
-171 -19 -217 -78 -53 -160 -13 -169 81 -6 57 19 103 76 141 45 30 74 29 112
-5z m-6451 -61 c0 -10 9 -44 20 -76 11 -33 23 -100 26 -149 3 -50 12 -106 20
-125 8 -19 17 -48 20 -65 3 -17 14 -51 25 -75 10 -24 17 -46 15 -49 -29 -29
-126 222 -144 374 -11 85 -5 197 9 188 5 -3 9 -13 9 -23z m3017 -180 c122 -54
203 -211 189 -371 -22 -278 -157 -561 -368 -773 -89 -90 -97 -95 -208 -141
-63 -27 -143 -57 -178 -67 -34 -10 -79 -28 -98 -40 -72 -44 -211 -3 -293 87
-89 97 -117 223 -95 411 28 229 136 446 312 626 112 115 322 242 464 282 77
22 209 15 275 -14z m-2831 -421 c8 0 14 -5 14 -10 0 -17 100 -148 149 -196
l46 -45 -40 20 c-54 26 -136 115 -201 216 -18 28 -18 29 -1 22 10 -4 25 -7 33
-7z m4792 -20 c71 -43 77 -135 15 -237 -67 -112 -182 -203 -256 -203 -40 0
-92 34 -107 70 -38 91 84 300 212 364 62 31 92 32 136 6z m-3155 -64 c49 -20
84 -69 108 -148 18 -59 21 -87 16 -167 -8 -144 -54 -258 -162 -396 -120 -153
-213 -223 -434 -325 -80 -37 -156 -70 -167 -74 -22 -7 -25 -15 -58 -160 -18
-77 -54 -162 -94 -220 -42 -61 -170 -164 -258 -208 -70 -35 -93 -41 -167 -45
-73 -5 -91 -3 -129 16 -71 34 -88 75 -88 209 0 116 9 142 48 142 9 0 50 17 89
37 l73 37 40 -39 c33 -33 47 -39 78 -39 46 2 105 36 120 70 7 14 23 85 37 157
13 73 36 186 50 252 23 103 60 297 109 570 l12 70 130 58 c71 32 199 91 284
132 85 40 164 75 175 78 44 10 157 6 188 -7z m2682 -128 c14 -6 25 -17 25 -23
0 -21 -66 -65 -107 -71 -58 -9 -101 -41 -128 -95 -34 -66 -33 -111 2 -139 35
-27 79 -21 111 16 33 37 29 56 -10 52 -31 -3 -33 -1 -31 26 1 16 4 31 7 33 7
8 160 51 165 47 6 -5 -29 -124 -45 -156 -33 -65 -128 -127 -193 -128 -73 0
-138 71 -128 141 14 109 149 267 255 299 38 12 48 11 77 -2z m-4025 -61 c8 -3
31 -10 50 -16 19 -6 46 -20 60 -31 l25 -20 -35 6 c-38 7 -160 59 -160 69 0 6
36 2 60 -8z m250 -67 c53 -15 59 -19 32 -19 -32 -1 -102 22 -102 33 0 7 -7 9
70 -14z m3331 -93 c32 -21 34 -27 37 -85 2 -51 -2 -74 -23 -120 -72 -157 -207
-259 -296 -222 -78 33 -92 119 -35 235 38 80 112 167 165 195 50 27 110 25
152 -3z m-440 -293 c-32 -198 -97 -310 -197 -339 -34 -9 -54 19 -54 74 0 62
18 80 54 56 14 -10 33 -15 41 -11 26 9 51 82 75 216 28 158 24 146 62 170 l33
20 3 -29 c2 -16 -6 -87 -17 -157z m-521 -79 c16 -8 38 -29 51 -46 64 -90 -50
-322 -193 -393 -65 -33 -98 -33 -137 0 -74 62 -64 165 28 292 64 86 110 127
168 148 48 17 49 17 83 -1z m-396 -226 c26 -29 28 -37 23 -87 -8 -72 -50 -156
-106 -210 -27 -27 -84 -63 -145 -93 -55 -27 -101 -49 -102 -49 -11 0 -11 44 0
98 8 37 19 110 25 162 22 171 14 158 111 191 108 36 154 33 194 -12z m663
-145 c-3 -3 -12 -4 -19 -1 -8 3 -5 6 6 6 11 1 17 -2 13 -5z m-1777 -59 c-14
-8 -67 -31 -119 -51 -112 -44 -109 -40 -172 -276 -39 -145 -44 -156 -73 -173
-17 -10 -60 -42 -96 -70 -85 -68 -149 -110 -157 -101 -3 3 43 57 104 119 61
62 119 131 130 152 11 22 39 96 63 165 24 69 50 133 59 142 9 10 56 29 104 43
49 14 105 34 125 45 43 22 69 26 32 5z m154 -102 c-56 -98 -103 -188 -104
-199 0 -7 19 -2 48 12 229 115 437 213 441 208 11 -11 -34 -36 -276 -156
l-243 -120 -127 -131 c-70 -73 -124 -124 -120 -114 11 30 82 128 152 212 37
44 81 100 98 125 59 87 149 210 154 210 3 0 -8 -21 -23 -47z m1279 -102 c95
-33 167 -80 247 -161 134 -133 186 -268 178 -460 -4 -81 -10 -117 -28 -160
-40 -93 -103 -191 -144 -224 -21 -17 -58 -48 -81 -69 -87 -76 -243 -130 -380
-129 -168 0 -343 77 -454 198 -85 92 -150 257 -151 375 0 152 70 339 167 440
94 99 240 182 366 209 66 14 214 4 280 -19z m757 -55 c0 -2 -18 -15 -40 -30
-22 -14 -40 -24 -40 -22 0 5 71 56 77 56 2 0 3 -2 3 -4z m-190 -530 c0 -15
-18 -31 -26 -23 -7 7 7 37 17 37 5 0 9 -6 9 -14z m-3405 -171 c71 -94 130
-141 255 -204 101 -52 139 -64 275 -86 118 -19 11 -24 -141 -7 -65 7 -128 8
-154 2 -3 0 6 -7 20 -15 14 -8 20 -14 13 -15 -33 -1 -180 143 -236 232 -46 73
-99 168 -94 168 2 0 30 -34 62 -75z m1525 -475 c-73 -63 -240 -180 -355 -250
-66 -40 -145 -92 -176 -116 -30 -23 -127 -89 -215 -147 -167 -110 -408 -276
-469 -322 l-35 -27 20 43 c11 24 20 51 20 59 0 25 140 289 230 435 21 34 57
99 80 145 23 47 47 88 52 91 12 7 58 -1 58 -10 0 -4 -32 -59 -71 -122 -137
-219 -233 -383 -251 -431 l-18 -49 32 17 c28 14 190 128 518 363 73 53 163
108 230 141 25 13 94 54 153 92 154 99 271 151 197 88z"/>
<path d="M5434 7675 c3 -22 13 -27 19 -11 3 8 0 17 -8 19 -7 3 -12 0 -11 -8z"/>
<path d="M1777 7563 c-4 -3 -7 -11 -7 -17 0 -6 5 -5 12 2 6 6 9 14 7 17 -3 3
-9 2 -12 -2z"/>
<path d="M1630 7549 c0 -5 5 -7 10 -4 6 3 10 8 10 11 0 2 -4 4 -10 4 -5 0 -10
-5 -10 -11z"/>
<path d="M1560 7535 c0 -8 5 -15 10 -15 6 0 10 7 10 15 0 8 -4 15 -10 15 -5 0
-10 -7 -10 -15z"/>
<path d="M1676 7531 c-4 -7 -5 -15 -2 -18 9 -9 19 4 14 18 -4 11 -6 11 -12 0z"/>
<path d="M1735 7520 c-5 -8 44 -45 50 -38 2 2 -7 13 -21 25 -13 12 -26 18 -29
13z"/>
<path d="M1600 7510 c0 -5 5 -10 10 -10 6 0 10 5 10 10 0 6 -4 10 -10 10 -5 0
-10 -4 -10 -10z"/>
<path d="M1525 7500 c-3 -5 -2 -10 4 -10 5 0 13 5 16 10 3 6 2 10 -4 10 -5 0
-13 -4 -16 -10z"/>
<path d="M1360 7496 c0 -2 8 -10 18 -17 15 -13 16 -12 3 4 -13 16 -21 21 -21
13z"/>
<path d="M1700 7490 c0 -5 7 -10 16 -10 8 0 12 5 9 10 -3 6 -10 10 -16 10 -5
0 -9 -4 -9 -10z"/>
<path d="M1500 7481 c0 -5 5 -13 10 -16 6 -3 10 -2 10 4 0 5 -4 13 -10 16 -5
3 -10 2 -10 -4z"/>
<path d="M1635 7480 c3 -5 10 -10 16 -10 5 0 9 5 9 10 0 6 -7 10 -16 10 -8 0
-12 -4 -9 -10z"/>
<path d="M1567 7474 c-3 -4 4 -15 17 -25 27 -21 36 -24 36 -9 0 6 -7 10 -15
10 -8 0 -15 7 -15 15 0 15 -12 20 -23 9z"/>
<path d="M1730 7466 c0 -3 11 -17 25 -32 14 -15 25 -22 25 -15 0 6 -9 20 -20
31 -19 19 -30 25 -30 16z"/>
<path d="M1796 7462 c-3 -6 -1 -14 5 -17 15 -10 25 3 12 16 -7 7 -13 7 -17 1z"/>
<path d="M1421 7418 c18 -24 34 -45 36 -47 2 -2 6 -1 10 3 4 4 0 12 -10 17 -9
6 -17 17 -17 24 0 8 -4 15 -10 15 -5 0 -10 7 -10 15 0 8 -7 15 -16 15 -12 0
-7 -11 17 -42z"/>
<path d="M1460 7450 c0 -5 5 -10 10 -10 6 0 10 5 10 10 0 6 -4 10 -10 10 -5 0
-10 -4 -10 -10z"/>
<path d="M1670 7450 c0 -5 5 -10 10 -10 6 0 10 5 10 10 0 6 -4 10 -10 10 -5 0
-10 -4 -10 -10z"/>
<path d="M1865 7450 c3 -5 11 -10 16 -10 6 0 7 5 4 10 -3 6 -11 10 -16 10 -6
0 -7 -4 -4 -10z"/>
<path d="M1530 7444 c0 -7 27 -34 34 -34 4 0 1 9 -6 20 -12 19 -28 27 -28 14z"/>
<path d="M1360 7421 c0 -6 5 -13 10 -16 6 -3 10 1 10 9 0 9 -4 16 -10 16 -5 0
-10 -4 -10 -9z"/>
<path d="M1482 7419 c2 -7 10 -15 17 -17 8 -3 12 1 9 9 -2 7 -10 15 -17 17 -8
3 -12 -1 -9 -9z"/>
<path d="M1630 7420 c-13 -8 -12 -10 3 -10 9 0 17 5 17 10 0 12 -1 12 -20 0z"/>
<path d="M1695 7420 c3 -5 10 -10 16 -10 5 0 9 5 9 10 0 6 -7 10 -16 10 -8 0
-12 -4 -9 -10z"/>
<path d="M1830 7421 c0 -5 5 -13 10 -16 6 -3 10 -2 10 4 0 5 -4 13 -10 16 -5
3 -10 2 -10 -4z"/>
<path d="M1900 7410 c0 -5 5 -10 10 -10 6 0 10 5 10 10 0 6 -4 10 -10 10 -5 0
-10 -4 -10 -10z"/>
<path d="M1517 7393 c-4 -6 4 -18 18 -27 28 -19 35 -20 35 -6 0 6 -5 10 -11
10 -7 0 -17 7 -24 17 -7 10 -14 12 -18 6z"/>
<path d="M1580 7390 c0 -5 5 -10 10 -10 6 0 10 5 10 10 0 6 -4 10 -10 10 -5 0
-10 -4 -10 -10z"/>
<path d="M1660 7391 c0 -6 5 -13 10 -16 6 -3 10 1 10 9 0 9 -4 16 -10 16 -5 0
-10 -4 -10 -9z"/>
<path d="M1726 7385 c4 -8 10 -15 15 -15 5 0 9 7 9 15 0 8 -7 15 -15 15 -9 0
-12 -6 -9 -15z"/>
<path d="M1330 7381 c0 -6 5 -13 10 -16 6 -3 10 1 10 9 0 9 -4 16 -10 16 -5 0
-10 -4 -10 -9z"/>
<path d="M1390 7380 c0 -5 5 -10 11 -10 5 0 7 5 4 10 -3 6 -8 10 -11 10 -2 0
-4 -4 -4 -10z"/>
<path d="M1800 7380 c0 -5 5 -10 10 -10 6 0 10 5 10 10 0 6 -4 10 -10 10 -5 0
-10 -4 -10 -10z"/>
<path d="M1865 7380 c-3 -5 -1 -10 4 -10 6 0 11 5 11 10 0 6 -2 10 -4 10 -3 0
-8 -4 -11 -10z"/>
<path d="M1620 7360 c0 -5 5 -10 10 -10 6 0 10 5 10 10 0 6 -4 10 -10 10 -5 0
-10 -4 -10 -10z"/>
<path d="M1690 7361 c0 -5 7 -14 15 -21 12 -10 15 -10 15 3 0 8 -7 17 -15 21
-8 3 -15 2 -15 -3z"/>
<path d="M1960 7354 c0 -8 5 -12 10 -9 6 3 10 10 10 16 0 5 -4 9 -10 9 -5 0
-10 -7 -10 -16z"/>
<path d="M1356 7352 c-3 -6 -1 -14 5 -17 14 -9 20 -2 10 14 -6 8 -11 9 -15 3z"/>
<path d="M1410 7345 c0 -8 5 -15 10 -15 6 0 10 7 10 15 0 8 -4 15 -10 15 -5 0
-10 -7 -10 -15z"/>
<path d="M1480 7344 c0 -9 5 -14 12 -12 18 6 21 28 4 28 -9 0 -16 -7 -16 -16z"/>
<path d="M1760 7345 c0 -8 5 -15 10 -15 6 0 10 7 10 15 0 8 -4 15 -10 15 -5 0
-10 -7 -10 -15z"/>
<path d="M1290 7346 c0 -1 11 -15 25 -30 29 -31 32 -27 9 9 -14 21 -34 34 -34
21z"/>
<path d="M1830 7339 c0 -5 5 -7 10 -4 6 3 10 8 10 11 0 2 -4 4 -10 4 -5 0 -10
-5 -10 -11z"/>
<path d="M1895 7340 c3 -5 8 -10 11 -10 2 0 4 5 4 10 0 6 -5 10 -11 10 -5 0
-7 -4 -4 -10z"/>
<path d="M1242 7310 c19 -26 38 -39 38 -25 0 6 -50 55 -56 55 -2 0 5 -13 18
-30z"/>
<path d="M1590 7331 c0 -6 5 -13 10 -16 6 -3 10 1 10 9 0 9 -4 16 -10 16 -5 0
-10 -4 -10 -9z"/>
<path d="M1520 7320 c0 -5 5 -10 10 -10 6 0 10 5 10 10 0 6 -4 10 -10 10 -5 0
-10 -4 -10 -10z"/>
<path d="M1650 7326 c0 -2 7 -6 15 -10 8 -3 15 -1 15 4 0 6 -7 10 -15 10 -8 0
-15 -2 -15 -4z"/>
<path d="M1385 7310 c4 -6 11 -8 16 -5 14 9 11 15 -7 15 -8 0 -12 -5 -9 -10z"/>
<path d="M1435 7295 c-30 -30 -32 -40 -6 -24 17 12 46 49 37 49 -3 0 -17 -11
-31 -25z"/>
<path d="M1730 7309 c0 -5 5 -7 10 -4 6 3 10 8 10 11 0 2 -4 4 -10 4 -5 0 -10
-5 -10 -11z"/>
<path d="M1791 7306 c-8 -10 -9 -16 -1 -21 5 -3 10 0 10 9 0 8 6 17 13 19 7 4
8 6 1 6 -6 1 -17 -5 -23 -13z"/>
<path d="M1865 7310 c4 -6 11 -8 16 -5 14 9 11 15 -7 15 -8 0 -12 -5 -9 -10z"/>
<path d="M1992 7288 c-23 -18 -42 -36 -42 -40 0 -13 5 -10 49 32 51 48 49 51
-7 8z"/>
<path d="M1916 7294 c-5 -14 -4 -15 9 -4 17 14 19 20 6 20 -5 0 -12 -7 -15
-16z"/>
<path d="M1495 7290 c-3 -5 -1 -10 4 -10 6 0 11 5 11 10 0 6 -2 10 -4 10 -3 0
-8 -4 -11 -10z"/>
<path d="M1555 7290 c3 -5 8 -10 11 -10 2 0 4 5 4 10 0 6 -5 10 -11 10 -5 0
-7 -4 -4 -10z"/>
<path d="M1615 7290 c3 -5 10 -10 16 -10 5 0 9 5 9 10 0 6 -7 10 -16 10 -8 0
-12 -4 -9 -10z"/>
<path d="M1695 7290 c3 -5 11 -10 16 -10 6 0 7 5 4 10 -3 6 -11 10 -16 10 -6
0 -7 -4 -4 -10z"/>
<path d="M1845 7290 c-3 -5 -1 -10 4 -10 6 0 11 5 11 10 0 6 -2 10 -4 10 -3 0
-8 -4 -11 -10z"/>
<path d="M2075 7275 c-16 -14 -25 -25 -19 -25 6 0 21 11 34 25 30 32 24 31
-15 0z"/>
<path d="M1227 7274 c3 -7 9 -14 14 -14 14 0 10 17 -5 23 -10 4 -13 1 -9 -9z"/>
<path d="M1360 7270 c0 -5 5 -10 11 -10 5 0 7 5 4 10 -3 6 -8 10 -11 10 -2 0
-4 -4 -4 -10z"/>
<path d="M1273 7240 c-13 -15 -23 -32 -23 -37 0 -4 9 3 18 15 l18 24 32 -36
c17 -20 34 -36 37 -36 13 0 2 23 -22 47 -16 14 -27 31 -25 39 5 22 -11 15 -35
-16z"/>
<path d="M1464 7258 c3 -7 9 -21 12 -30 7 -20 20 -23 29 -8 3 6 -1 13 -9 16
-9 3 -16 12 -16 20 0 8 -5 14 -11 14 -6 0 -8 -6 -5 -12z"/>
<path d="M1520 7260 c0 -5 5 -10 11 -10 5 0 7 5 4 10 -3 6 -8 10 -11 10 -2 0
-4 -4 -4 -10z"/>
<path d="M1650 7260 c0 -5 5 -10 10 -10 6 0 10 5 10 10 0 6 -4 10 -10 10 -5 0
-10 -4 -10 -10z"/>
<path d="M1745 7261 c-3 -5 -1 -12 5 -16 5 -3 10 1 10 9 0 18 -6 21 -15 7z"/>
<path d="M1810 7254 c0 -8 5 -12 10 -9 6 3 10 10 10 16 0 5 -4 9 -10 9 -5 0
-10 -7 -10 -16z"/>
<path d="M1377 7229 c-5 -20 -5 -20 14 -3 23 20 23 24 5 24 -7 0 -16 -9 -19
-21z"/>
<path d="M1550 7225 c0 -8 5 -15 10 -15 6 0 10 7 10 15 0 8 -4 15 -10 15 -5 0
-10 -7 -10 -15z"/>
<path d="M1605 7221 c-3 -5 -1 -12 5 -16 5 -3 10 1 10 9 0 18 -6 21 -15 7z"/>
<path d="M1688 7223 c6 -2 18 -2 25 0 6 3 1 5 -13 5 -14 0 -19 -2 -12 -5z"/>
<path d="M1770 7220 c0 -5 5 -10 10 -10 6 0 10 5 10 10 0 6 -4 10 -10 10 -5 0
-10 -4 -10 -10z"/>
<path d="M1837 7216 c-4 -10 -1 -13 9 -9 7 3 14 9 14 14 0 14 -17 10 -23 -5z"/>
<path d="M1910 7220 c0 -5 5 -10 10 -10 6 0 10 5 10 10 0 6 -4 10 -10 10 -5 0
-10 -4 -10 -10z"/>
<path d="M1970 7210 c0 -5 7 -10 15 -10 8 0 15 5 15 10 0 6 -7 10 -15 10 -8 0
-15 -4 -15 -10z"/>
<path d="M1665 7200 c-3 -5 -1 -10 4 -10 6 0 11 5 11 10 0 6 -2 10 -4 10 -3 0
-8 -4 -11 -10z"/>
<path d="M1455 7190 c3 -5 8 -10 11 -10 2 0 4 5 4 10 0 6 -5 10 -11 10 -5 0
-7 -4 -4 -10z"/>
<path d="M1510 7185 c-7 -9 -11 -18 -8 -20 3 -3 11 1 18 10 7 9 11 18 8 20 -3
3 -11 -1 -18 -10z"/>
<path d="M1721 7179 c-13 -11 -21 -22 -19 -25 3 -3 18 6 33 20 33 30 21 35
-14 5z"/>
<path d="M1877 7193 c-4 -3 -7 -11 -7 -17 0 -6 5 -5 12 2 6 6 9 14 7 17 -3 3
-9 2 -12 -2z"/>
<path d="M1630 7175 c0 -8 5 -15 10 -15 6 0 10 7 10 15 0 8 -4 15 -10 15 -5 0
-10 -7 -10 -15z"/>
<path d="M1805 7180 c-3 -5 -2 -10 4 -10 5 0 13 5 16 10 3 6 2 10 -4 10 -5 0
-13 -4 -16 -10z"/>
<path d="M1925 7170 c-10 -11 -13 -20 -7 -20 6 0 14 5 17 10 4 6 11 8 16 5 5
-4 9 1 9 9 0 22 -13 20 -35 -4z"/>
<path d="M2080 7179 c0 -5 5 -7 10 -4 6 3 10 8 10 11 0 2 -4 4 -10 4 -5 0 -10
-5 -10 -11z"/>
<path d="M1240 7170 c0 -5 5 -10 10 -10 6 0 10 5 10 10 0 6 -4 10 -10 10 -5 0
-10 -4 -10 -10z"/>
<path d="M1425 7171 c-6 -11 9 -23 19 -14 9 9 7 23 -3 23 -6 0 -12 -4 -16 -9z"/>
<path d="M2145 7145 c-17 -13 -25 -24 -20 -24 13 0 59 38 54 44 -3 2 -18 -7
-34 -20z"/>
<path d="M1305 7150 c3 -5 10 -10 16 -10 5 0 9 5 9 10 0 6 -7 10 -16 10 -8 0
-12 -4 -9 -10z"/>
<path d="M1780 7150 c0 -5 5 -10 10 -10 6 0 10 5 10 10 0 6 -4 10 -10 10 -5 0
-10 -4 -10 -10z"/>
<path d="M1847 7153 c-4 -3 -7 -11 -7 -17 0 -6 5 -5 12 2 6 6 9 14 7 17 -3 3
-9 2 -12 -2z"/>
<path d="M2040 7150 c0 -5 5 -10 10 -10 6 0 10 5 10 10 0 6 -4 10 -10 10 -5 0
-10 -4 -10 -10z"/>
<path d="M1383 7136 c5 -16 24 -18 30 -4 3 9 -3 14 -14 14 -11 0 -18 -5 -16
-10z"/>
<path d="M1460 7135 c0 -8 5 -15 10 -15 6 0 10 7 10 15 0 8 -4 15 -10 15 -5 0
-10 -7 -10 -15z"/>
<path d="M1590 7140 c0 -5 4 -10 9 -10 6 0 13 5 16 10 3 6 -1 10 -9 10 -9 0
-16 -4 -16 -10z"/>
<path d="M1955 7139 c-4 -6 -5 -13 -2 -16 7 -7 27 6 27 18 0 12 -17 12 -25 -2z"/>
<path d="M1200 7129 c0 -5 5 -7 10 -4 6 3 10 8 10 11 0 2 -4 4 -10 4 -5 0 -10
-5 -10 -11z"/>
<path d="M1530 7132 c0 -11 41 -45 47 -39 2 3 -5 15 -16 26 -22 22 -31 26 -31
13z"/>
<path d="M1656 7125 c-3 -8 -13 -15 -23 -15 -13 0 -14 -3 -6 -11 9 -9 16 -8
28 5 9 9 21 16 26 16 5 0 9 5 9 10 0 16 -27 12 -34 -5z"/>
<path d="M1753 7133 c-15 -5 -18 -33 -4 -33 8 0 25 30 19 35 -2 1 -9 0 -15 -2z"/>
<path d="M1276 7116 c3 -9 11 -16 16 -16 13 0 5 23 -10 28 -7 2 -10 -2 -6 -12z"/>
<path d="M1873 7113 c-3 -10 -20 -30 -37 -45 -17 -15 -25 -27 -18 -28 14 0 82
67 82 81 0 16 -20 10 -27 -8z"/>
<path d="M1996 7115 c-11 -8 -17 -17 -14 -21 4 -3 16 4 27 15 24 24 15 28 -13
6z"/>
<path d="M1360 7100 c0 -5 5 -10 10 -10 6 0 10 5 10 10 0 6 -4 10 -10 10 -5 0
-10 -4 -10 -10z"/>
<path d="M1427 7104 c-8 -8 1 -24 14 -24 5 0 9 7 9 15 0 15 -12 20 -23 9z"/>
<path d="M2090 7095 c7 -8 16 -15 21 -15 5 0 6 7 3 15 -4 8 -13 15 -21 15 -13
0 -13 -3 -3 -15z"/>
<path d="M1508 7083 c12 -8 22 -21 22 -28 0 -12 29 -29 37 -22 6 7 -57 67 -70
66 -6 0 -2 -7 11 -16z"/>
<path d="M1220 7082 c0 -4 6 -16 13 -26 11 -16 15 -16 19 -4 4 8 -2 20 -13 26
-10 7 -19 8 -19 4z"/>
<path d="M1702 7078 c6 -18 28 -21 28 -4 0 9 -7 16 -16 16 -9 0 -14 -5 -12
-12z"/>
<path d="M1780 7080 c0 -5 5 -10 10 -10 6 0 10 5 10 10 0 6 -4 10 -10 10 -5 0
-10 -4 -10 -10z"/>
<path d="M2052 7070 c13 -20 28 -27 28 -12 0 10 -22 32 -32 32 -5 0 -3 -9 4
-20z"/>
<path d="M2180 7075 c-7 -8 -19 -15 -26 -15 -8 0 -14 -4 -14 -10 0 -14 5 -13
46 15 20 14 30 25 22 25 -9 0 -21 -7 -28 -15z"/>
<path d="M1320 7072 c0 -5 14 -18 30 -30 24 -18 30 -20 30 -7 0 8 -7 15 -15
15 -8 0 -15 7 -15 15 0 8 -7 15 -15 15 -8 0 -15 -4 -15 -8z"/>
<path d="M1395 7070 c-3 -5 -1 -10 4 -10 6 0 11 5 11 10 0 6 -2 10 -4 10 -3 0
-8 -4 -11 -10z"/>
<path d="M1590 7064 c0 -14 3 -14 15 -4 8 7 15 14 15 16 0 2 -7 4 -15 4 -8 0
-15 -7 -15 -16z"/>
<path d="M1943 7073 c-18 -7 -16 -20 2 -20 8 0 15 6 15 14 0 7 -1 13 -2 12 -2
0 -9 -3 -15 -6z"/>
<path d="M1460 7060 c0 -5 5 -10 10 -10 6 0 10 5 10 10 0 6 -4 10 -10 10 -5 0
-10 -4 -10 -10z"/>
<path d="M2010 7062 c0 -14 28 -47 35 -41 2 3 -5 15 -15 29 -11 14 -20 19 -20
12z"/>
<path d="M1640 7050 c0 -5 9 -10 20 -10 11 0 20 -7 20 -15 0 -16 12 -20 23 -8
11 10 -24 43 -45 43 -10 0 -18 -4 -18 -10z"/>
<path d="M1750 7050 c-9 -6 -10 -10 -3 -10 6 0 15 5 18 10 8 12 4 12 -15 0z"/>
<path d="M1888 7032 c-31 -18 -36 -32 -13 -32 8 0 15 7 15 15 0 8 7 15 15 15
8 0 15 5 15 10 0 13 0 13 -32 -8z"/>
<path d="M1276 7019 c-11 -10 -16 -22 -12 -26 4 -4 12 0 17 10 6 9 17 17 24
17 8 0 15 5 15 10 0 16 -23 10 -44 -11z"/>
<path d="M1420 7030 c0 -5 5 -10 10 -10 6 0 10 5 10 10 0 6 -4 10 -10 10 -5 0
-10 -4 -10 -10z"/>
<path d="M1480 7026 c0 -8 -6 -16 -12 -19 -8 -2 -9 -8 -4 -13 5 -5 11 -4 13 4
3 6 11 12 19 12 19 0 18 16 -1 24 -9 3 -15 0 -15 -8z"/>
<path d="M1958 7019 c-20 -22 -22 -29 -8 -29 12 0 50 32 50 42 0 14 -25 7 -42
-13z"/>
<path d="M1600 7023 c-43 -14 -80 -35 -80 -45 0 -6 11 -3 26 7 21 14 28 14 42
3 14 -11 15 -11 9 6 -6 15 -4 17 13 13 13 -3 20 0 20 9 0 15 -5 16 -30 7z"/>
<path d="M1754 7009 c-13 -15 -14 -20 -4 -15 8 3 23 9 33 12 9 4 17 10 17 15
0 17 -27 9 -46 -12z"/>
<path d="M2097 7024 c-8 -8 1 -24 14 -24 5 0 9 7 9 15 0 15 -12 20 -23 9z"/>
<path d="M1195 7010 c-3 -5 -1 -10 4 -10 6 0 11 5 11 10 0 6 -2 10 -4 10 -3 0
-8 -4 -11 -10z"/>
<path d="M1386 7012 c-3 -6 -1 -14 5 -17 15 -10 25 3 12 16 -7 7 -13 7 -17 1z"/>
<path d="M2185 7000 c-14 -16 -15 -20 -4 -20 16 0 39 19 39 32 0 14 -16 9 -35
-12z"/>
<path d="M1325 7000 c4 -6 11 -8 16 -5 14 9 11 15 -7 15 -8 0 -12 -5 -9 -10z"/>
<path d="M1635 6990 c-3 -5 -2 -10 4 -10 5 0 13 5 16 10 3 6 2 10 -4 10 -5 0
-13 -4 -16 -10z"/>
<path d="M1998 6979 c-10 -10 -15 -19 -10 -19 10 1 42 26 42 34 0 11 -15 5
-32 -15z"/>
<path d="M2036 6955 c-21 -25 -44 -45 -52 -45 -8 0 -14 -7 -14 -15 0 -8 7 -15
15 -15 8 0 15 7 15 15 0 8 7 15 15 15 8 0 15 6 15 14 0 8 9 17 19 21 10 3 21
17 24 30 2 14 3 25 2 25 -2 0 -19 -20 -39 -45z"/>
<path d="M1700 6975 c0 -8 7 -15 15 -15 8 0 15 7 15 15 0 8 -7 15 -15 15 -8 0
-15 -7 -15 -15z"/>
<path d="M1820 6980 c0 -5 5 -10 10 -10 6 0 10 5 10 10 0 6 -4 10 -10 10 -5 0
-10 -4 -10 -10z"/>
<path d="M2129 6968 c9 -24 31 -37 31 -18 0 12 -24 40 -34 40 -3 0 -2 -10 3
-22z"/>
<path d="M1220 6965 c-10 -13 -9 -15 8 -15 15 0 20 5 16 15 -4 8 -7 15 -9 15
-1 0 -8 -7 -15 -15z"/>
<path d="M1290 6970 c0 -5 5 -10 10 -10 6 0 10 5 10 10 0 6 -4 10 -10 10 -5 0
-10 -4 -10 -10z"/>
<path d="M1372 6949 c12 -16 24 -26 26 -20 3 9 -32 51 -43 51 -3 0 5 -14 17
-31z"/>
<path d="M1415 6970 c-3 -5 1 -10 9 -10 9 0 16 5 16 10 0 6 -4 10 -9 10 -6 0
-13 -4 -16 -10z"/>
<path d="M1897 6974 c-9 -10 2 -24 19 -24 8 0 14 7 14 15 0 15 -21 21 -33 9z"/>
<path d="M1490 6960 c0 -5 5 -10 10 -10 6 0 10 5 10 10 0 6 -4 10 -10 10 -5 0
-10 -4 -10 -10z"/>
<path d="M1561 6960 c-1 -21 16 -46 26 -37 4 5 3 11 -3 15 -6 4 -14 14 -17 22
-5 13 -5 13 -6 0z"/>
<path d="M1600 6949 c0 -5 5 -7 10 -4 6 3 10 8 10 11 0 2 -4 4 -10 4 -5 0 -10
-5 -10 -11z"/>
<path d="M1640 6956 c0 -11 63 -66 70 -61 16 10 12 25 -5 19 -9 -4 -16 3 -21
20 -4 17 -13 26 -25 26 -10 0 -19 -2 -19 -4z"/>
<path d="M1770 6950 c0 -5 -9 -10 -20 -10 -11 0 -20 -2 -20 -5 0 -7 39 -45 46
-45 4 0 1 7 -6 15 -14 16 -6 35 16 35 8 0 14 5 14 10 0 6 -7 10 -15 10 -8 0
-15 -4 -15 -10z"/>
<path d="M1305 6940 c3 -5 8 -10 11 -10 2 0 4 5 4 10 0 6 -5 10 -11 10 -5 0
-7 -4 -4 -10z"/>
<path d="M1850 6942 c0 -5 7 -13 16 -16 10 -4 14 -1 12 6 -5 15 -28 23 -28 10z"/>
<path d="M1450 6930 c0 -5 5 -10 10 -10 6 0 10 5 10 10 0 6 -4 10 -10 10 -5 0
-10 -4 -10 -10z"/>
<path d="M1515 6930 c-3 -5 -1 -10 4 -10 6 0 11 5 11 10 0 6 -2 10 -4 10 -3 0
-8 -4 -11 -10z"/>
<path d="M1930 6936 c0 -2 7 -6 15 -10 8 -3 15 -1 15 4 0 6 -7 10 -15 10 -8 0
-15 -2 -15 -4z"/>
<path d="M2080 6915 c0 -8 6 -15 14 -15 8 0 16 7 20 15 4 10 -1 15 -14 15 -11
0 -20 -7 -20 -15z"/>
<path d="M2170 6915 c0 -8 -9 -19 -20 -25 -11 -6 -20 -17 -20 -26 0 -9 13 -2
35 20 39 39 42 46 20 46 -8 0 -15 -7 -15 -15z"/>
<path d="M1352 6911 c-11 -7 -11 -9 2 -14 10 -4 16 -1 16 8 0 17 -1 17 -18 6z"/>
<path d="M1804 6895 c-12 -13 -20 -26 -17 -29 8 -7 33 5 33 16 0 6 8 17 18 24
13 11 14 13 2 13 -8 -1 -25 -12 -36 -24z"/>
<path d="M1544 6898 c3 -7 9 -21 12 -30 4 -10 11 -18 16 -18 5 0 7 6 4 13 -3
6 -9 20 -12 30 -4 9 -11 17 -16 17 -5 0 -7 -6 -4 -12z"/>
<path d="M1610 6900 c19 -13 30 -13 30 0 0 6 -10 10 -22 10 -19 0 -20 -2 -8
-10z"/>
<path d="M1883 6895 c-19 -21 -16 -27 7 -15 11 6 20 15 20 20 0 14 -13 12 -27
-5z"/>
<path d="M1289 6853 l-34 -38 35 30 c19 16 39 33 45 37 5 5 5 8 -1 8 -6 0 -26
-17 -45 -37z"/>
<path d="M2050 6880 c0 -5 4 -10 9 -10 6 0 13 5 16 10 3 6 -1 10 -9 10 -9 0
-16 -4 -16 -10z"/>
<path d="M1500 6870 c0 -5 5 -10 10 -10 6 0 10 5 10 10 0 6 -4 10 -10 10 -5 0
-10 -4 -10 -10z"/>
<path d="M1640 6870 c0 -5 7 -10 15 -10 8 0 15 5 15 10 0 6 -7 10 -15 10 -8 0
-15 -4 -15 -10z"/>
<path d="M1725 6871 c-3 -5 -1 -12 5 -16 5 -3 10 1 10 9 0 18 -6 21 -15 7z"/>
<path d="M1926 6861 c-11 -12 -14 -21 -7 -26 6 -3 11 -1 11 4 0 6 7 11 15 11
8 0 15 7 15 15 0 20 -13 19 -34 -4z"/>
<path d="M1410 6853 c0 -5 10 -18 23 -29 l22 -19 -20 25 c-11 14 -21 27 -22
29 -2 2 -3 0 -3 -6z"/>
<path d="M1475 6850 c3 -5 11 -10 16 -10 6 0 7 5 4 10 -3 6 -11 10 -16 10 -6
0 -7 -4 -4 -10z"/>
<path d="M1840 6852 c0 -5 9 -17 20 -27 11 -10 20 -13 20 -7 0 7 -4 12 -10 12
-5 0 -10 7 -10 15 0 8 -4 15 -10 15 -5 0 -10 -4 -10 -8z"/>
<path d="M2015 6850 c-3 -5 1 -10 9 -10 9 0 16 5 16 10 0 6 -4 10 -9 10 -6 0
-13 -4 -16 -10z"/>
<path d="M1596 6835 c-16 -12 -17 -18 -8 -27 9 -9 12 -8 12 6 0 15 3 16 14 7
12 -10 13 -8 9 8 -3 12 -6 21 -7 21 0 0 -10 -7 -20 -15z"/>
<path d="M1753 6843 c-17 -6 -16 -23 1 -23 8 0 16 7 20 15 6 15 1 17 -21 8z"/>
<path d="M2095 6840 c-3 -5 -2 -10 4 -10 5 0 13 5 16 10 3 6 2 10 -4 10 -5 0
-13 -4 -16 -10z"/>
<path d="M1369 6823 c-13 -16 -12 -17 4 -4 16 13 21 21 13 21 -2 0 -10 -8 -17
-17z"/>
<path d="M1687 6821 c2 -9 13 -22 23 -28 15 -10 17 -9 13 6 -2 9 -13 22 -23
28 -15 10 -17 9 -13 -6z"/>
<path d="M1500 6826 c0 -2 7 -9 15 -16 13 -11 14 -10 9 4 -5 14 -24 23 -24 12z"/>
<path d="M1980 6820 c0 -5 5 -10 10 -10 6 0 10 5 10 10 0 6 -4 10 -10 10 -5 0
-10 -4 -10 -10z"/>
<path d="M2065 6809 c-4 -6 -5 -13 -2 -16 7 -7 27 6 27 18 0 12 -17 12 -25 -2z"/>
<path d="M1803 6803 c-17 -6 -16 -23 1 -23 8 0 16 7 20 15 6 15 1 17 -21 8z"/>
<path d="M1945 6801 c-3 -5 -1 -12 4 -15 5 -3 11 1 15 9 6 16 -9 21 -19 6z"/>
<path d="M1450 6790 c0 -5 5 -10 10 -10 6 0 10 5 10 10 0 6 -4 10 -10 10 -5 0
-10 -4 -10 -10z"/>
<path d="M1634 6791 c6 -9 -31 -46 -53 -53 -9 -3 -4 -10 15 -23 27 -17 28 -17
14 -1 -13 16 -12 20 9 37 13 10 27 16 32 13 5 -3 9 1 9 9 0 8 -7 18 -16 21 -8
3 -13 2 -10 -3z"/>
<path d="M1535 6780 c3 -5 11 -10 16 -10 6 0 7 5 4 10 -3 6 -11 10 -16 10 -6
0 -7 -4 -4 -10z"/>
<path d="M1890 6781 c0 -5 7 -11 15 -15 8 -3 15 -12 15 -21 0 -8 5 -15 10 -15
6 0 10 -7 10 -15 0 -8 7 -15 15 -15 8 0 15 7 15 15 0 8 -7 15 -15 15 -8 0 -21
14 -30 30 -15 28 -35 41 -35 21z"/>
<path d="M1997 6761 c-17 -17 -16 -18 11 -17 20 1 29 6 27 15 -3 22 -18 22
-38 2z"/>
<path d="M1384 6738 l-29 -33 33 29 c17 17 32 31 32 33 0 8 -8 1 -36 -29z"/>
<path d="M1745 6759 c-4 -6 -4 -13 0 -17 4 -4 10 -1 12 6 3 6 9 10 14 6 5 -3
9 0 9 5 0 14 -27 14 -35 0z"/>
<path d="M1480 6750 c0 -4 6 -12 13 -18 10 -8 13 -6 13 7 0 10 -6 18 -13 18
-7 0 -13 -4 -13 -7z"/>
<path d="M1840 6750 c0 -5 4 -10 9 -10 6 0 13 5 16 10 3 6 -1 10 -9 10 -9 0
-16 -4 -16 -10z"/>
<path d="M2080 6739 c0 -5 5 -7 10 -4 6 3 10 8 10 11 0 2 -4 4 -10 4 -5 0 -10
-5 -10 -11z"/>
<path d="M1670 6725 c0 -8 7 -15 15 -15 8 0 15 -4 15 -10 0 -5 5 -10 10 -10 6
0 3 11 -6 25 -18 28 -34 33 -34 10z"/>
<path d="M1800 6720 c0 -5 5 -10 10 -10 6 0 10 5 10 10 0 6 -4 10 -10 10 -5 0
-10 -4 -10 -10z"/>
<path d="M1526 6702 c-3 -6 -1 -14 5 -17 15 -10 25 3 12 16 -7 7 -13 7 -17 1z"/>
<path d="M1775 6699 c-4 -6 -5 -12 -2 -15 2 -3 7 2 10 11 7 17 1 20 -8 4z"/>
<path d="M1884 6700 c3 -8 9 -23 12 -32 4 -10 10 -18 15 -18 16 0 10 20 -12
43 -12 12 -19 15 -15 7z"/>
<path d="M1635 6689 c-11 -17 1 -21 15 -4 8 9 8 15 2 15 -6 0 -14 -5 -17 -11z"/>
<path d="M1837 6666 c-4 -10 -1 -13 8 -9 8 3 12 9 9 14 -7 12 -11 11 -17 -5z"/>
<path d="M1727 6656 c-4 -10 -1 -13 9 -9 15 6 19 23 5 23 -5 0 -11 -7 -14 -14z"/>
<path d="M1660 6645 c7 -9 15 -13 17 -11 7 7 -7 26 -19 26 -6 0 -6 -6 2 -15z"/>
<path d="M1563 6624 c-10 -22 -10 -23 13 -7 28 18 28 19 11 26 -7 2 -18 -6
-24 -19z"/>
<path d="M1765 6620 c3 -5 11 -10 16 -10 6 0 7 5 4 10 -3 6 -11 10 -16 10 -6
0 -7 -4 -4 -10z"/>
<path d="M1785 6590 c-3 -6 1 -7 9 -4 18 7 21 14 7 14 -6 0 -13 -4 -16 -10z"/>
<path d="M1634 6574 c-18 -14 -18 -15 4 -4 12 6 22 13 22 15 0 8 -5 6 -26 -11z"/>
<path d="M4740 6109 c-22 -18 -22 -19 -3 -10 12 6 25 16 28 21 9 15 3 12 -25
-11z"/>
<path d="M4474 7140 c0 -13 4 -16 10 -10 7 7 7 13 0 20 -6 6 -10 3 -10 -10z"/>
<path d="M4450 7120 c0 -11 4 -20 9 -20 5 0 7 9 4 20 -3 11 -7 20 -9 20 -2 0
-4 -9 -4 -20z"/>
<path d="M4500 7111 c0 -6 4 -13 10 -16 6 -3 7 1 4 9 -7 18 -14 21 -14 7z"/>
<path d="M4345 7010 c3 -5 8 -10 11 -10 2 0 4 5 4 10 0 6 -5 10 -11 10 -5 0
-7 -4 -4 -10z"/>
<path d="M4442 7004 c10 -10 20 -16 22 -13 3 3 -5 11 -17 18 -21 13 -21 12 -5
-5z"/>
<path d="M4418 6973 c10 -4 9 -9 -5 -20 -10 -8 -12 -11 -4 -7 11 5 13 3 8 -10
-4 -10 -7 -23 -8 -29 0 -7 -4 -3 -8 7 -7 19 -8 19 -13 -1 -10 -36 26 -20 38
18 13 36 10 49 -9 48 -8 0 -8 -2 1 -6z"/>
<path d="M4366 6915 c-3 -9 -6 -22 -5 -28 0 -7 5 -1 10 12 5 13 8 26 5 28 -2
2 -6 -3 -10 -12z"/>
<path d="M4440 6860 c-9 -6 -10 -10 -3 -10 6 0 15 5 18 10 8 12 4 12 -15 0z"/>
<path d="M4336 6793 c-6 -14 -5 -15 5 -6 7 7 10 15 7 18 -3 3 -9 -2 -12 -12z"/>
<path d="M4298 6783 c7 -3 16 -2 19 1 4 3 -2 6 -13 5 -11 0 -14 -3 -6 -6z"/>
<path d="M4350 6720 c0 -5 5 -10 10 -10 6 0 10 5 10 10 0 6 -4 10 -10 10 -5 0
-10 -4 -10 -10z"/>
<path d="M4245 6700 c3 -5 8 -10 11 -10 2 0 4 5 4 10 0 6 -5 10 -11 10 -5 0
-7 -4 -4 -10z"/>
<path d="M4270 6701 c0 -6 4 -13 10 -16 6 -3 7 1 4 9 -7 18 -14 21 -14 7z"/>
<path d="M4240 6671 c0 -5 5 -13 10 -16 6 -3 10 -2 10 4 0 5 -4 13 -10 16 -5
3 -10 2 -10 -4z"/>
<path d="M4278 6663 c7 -3 16 -2 19 1 4 3 -2 6 -13 5 -11 0 -14 -3 -6 -6z"/>
<path d="M4260 6625 c0 -8 2 -15 4 -15 2 0 6 7 10 15 3 8 1 15 -4 15 -6 0 -10
-7 -10 -15z"/>
<path d="M4116 6616 c3 -8 14 -14 24 -13 17 1 18 12 2 12 -4 0 -13 4 -19 8 -9
6 -11 3 -7 -7z"/>
<path d="M4165 6588 c-10 -20 -11 -27 -3 -18 7 9 20 15 28 14 10 0 11 1 2 3
-8 3 -11 11 -8 19 10 27 -4 14 -19 -18z"/>
<path d="M4215 6609 c-17 -6 -17 -8 -2 -8 19 -1 23 -16 7 -26 -5 -3 -9 -14 -9
-23 1 -15 2 -15 6 1 2 9 8 17 13 17 10 0 20 39 12 44 -4 2 -16 0 -27 -5z"/>
<path d="M7515 6674 c-27 -13 -39 -21 -26 -18 34 9 91 33 91 39 0 9 -14 4 -65
-21z"/>
<path d="M7230 6550 c-8 -5 -10 -10 -5 -10 6 0 17 5 25 10 8 5 11 10 5 10 -5
0 -17 -5 -25 -10z"/>
<path d="M6765 6340 c-33 -16 -91 -43 -129 -60 -38 -16 -67 -32 -64 -35 3 -3
65 24 139 59 74 35 130 65 124 65 -5 0 -37 -13 -70 -29z"/>
<path d="M7080 6100 c-9 -6 -10 -10 -3 -10 6 0 15 5 18 10 8 12 4 12 -15 0z"/>
<path d="M7004 6064 c-18 -14 -18 -14 6 -3 31 14 36 19 24 19 -6 0 -19 -7 -30
-16z"/>
<path d="M4391 6811 c-9 -15 -9 -21 -1 -21 7 0 9 -9 6 -22 -4 -14 1 -10 11 10
12 23 14 35 6 43 -8 8 -14 5 -22 -10z"/>
<path d="M2632 6264 c-7 -8 -8 -14 -3 -14 10 0 25 19 20 25 -2 1 -10 -3 -17
-11z"/>
<path d="M2422 6090 c0 -14 2 -19 5 -12 2 6 2 18 0 25 -3 6 -5 1 -5 -13z"/>
<path d="M6365 5810 c-3 -5 -1 -10 4 -10 6 0 11 5 11 10 0 6 -2 10 -4 10 -3 0
-8 -4 -11 -10z"/>
<path d="M5587 5584 c-4 -4 -7 -23 -6 -43 l1 -36 9 33 c11 36 9 58 -4 46z"/>
<path d="M5572 5480 c0 -14 2 -19 5 -12 2 6 2 18 0 25 -3 6 -5 1 -5 -13z"/>
<path d="M5515 5435 l-30 -13 32 -1 c25 -1 33 -6 36 -23 3 -14 5 -9 6 15 1 41
-1 42 -44 22z"/>
<path d="M3646 6072 c-4 -4 -13 -7 -19 -7 -7 0 -13 -9 -14 -20 l-3 -20 9 20
c8 16 10 17 10 3 1 -9 5 -19 10 -22 5 -4 7 2 4 13 -3 10 1 22 8 27 9 5 11 2 6
-9 -3 -10 -2 -17 4 -17 6 0 8 -4 5 -9 -3 -5 1 -11 8 -14 12 -5 13 -1 4 24 -11
32 -21 42 -32 31z"/>
<path d="M3574 6008 c-3 -4 0 -8 6 -8 6 0 8 -4 5 -10 -3 -5 -2 -10 3 -10 5 0
12 8 14 18 5 19 -18 27 -28 10z"/>
<path d="M3481 5904 c0 -11 3 -14 6 -6 3 7 2 16 -1 19 -3 4 -6 -2 -5 -13z"/>
<path d="M3201 5714 c0 -11 3 -14 6 -6 3 7 2 16 -1 19 -3 4 -6 -2 -5 -13z"/>
<path d="M3163 5710 c-13 -5 -23 -11 -23 -14 0 -8 30 0 42 12 14 14 11 14 -19
2z"/>
<path d="M5231 5834 c0 -11 3 -14 6 -6 3 7 2 16 -1 19 -3 4 -6 -2 -5 -13z"/>
<path d="M5221 5794 c0 -11 3 -14 6 -6 3 7 2 16 -1 19 -3 4 -6 -2 -5 -13z"/>
<path d="M5171 5545 c-13 -90 -14 -120 -2 -90 10 24 25 165 18 165 -2 0 -10
-34 -16 -75z"/>
<path d="M5115 5282 c-6 -4 -8 -25 -5 -47 l5 -40 7 45 c7 49 7 52 -7 42z"/>
<path d="M4232 5220 c-18 -4 -36 -11 -40 -15 -4 -3 5 -4 21 0 15 4 51 11 80
15 47 7 48 8 12 8 -22 0 -55 -4 -73 -8z"/>
<path d="M4280 5201 c-101 -20 -235 -108 -301 -197 -113 -154 -161 -392 -99
-502 66 -117 238 -86 395 71 86 86 134 176 170 321 21 84 24 107 16 156 -20
126 -76 172 -181 151z"/>
<path d="M4692 5078 c-57 -23 -66 -35 -12 -17 25 9 37 9 51 0 17 -10 19 -8 19
14 0 14 -1 25 -2 24 -2 0 -27 -10 -56 -21z"/>
<path d="M3939 5023 c-13 -16 -12 -17 4 -4 9 7 17 15 17 17 0 8 -8 3 -21 -13z"/>
<path d="M3910 4980 c-6 -11 -8 -20 -6 -20 3 0 10 9 16 20 6 11 8 20 6 20 -3
0 -10 -9 -16 -20z"/>
<path d="M4487 4983 c-4 -3 -7 -11 -7 -17 0 -6 5 -5 12 2 6 6 9 14 7 17 -3 3
-9 2 -12 -2z"/>
<path d="M3755 4695 l-30 -14 30 6 c17 3 37 9 45 14 27 15 -11 10 -45 -6z"/>
<path d="M6413 4954 c-18 -9 -48 -34 -67 -55 -73 -80 -70 -171 5 -177 29 -2
43 4 82 39 58 51 77 85 77 142 0 67 -31 83 -97 51z"/>
<path d="M2990 4645 c-14 -8 -20 -14 -15 -14 6 0 21 6 35 14 14 8 21 14 15 14
-5 0 -21 -6 -35 -14z"/>
<path d="M3045 4628 c-33 -18 -87 -42 -120 -54 l-60 -22 -6 -48 c-3 -27 -14
-102 -24 -166 -10 -65 -15 -121 -12 -125 15 -14 248 105 314 161 63 53 113
210 84 264 -18 35 -99 30 -176 -10z"/>
<path d="M2840 4580 c-8 -5 -12 -11 -10 -14 3 -2 14 2 24 10 22 15 10 19 -14
4z"/>
<path d="M3417 4511 c-41 -26 -46 -36 -10 -17 17 9 35 20 38 26 8 13 6 12 -28
-9z"/>
<path d="M5495 4556 c-56 -24 -115 -114 -115 -175 0 -37 41 -75 72 -68 32 8
97 74 114 114 17 40 18 115 2 131 -15 15 -35 15 -73 -2z"/>
<path d="M4538 4145 c-41 -28 -88 -113 -88 -160 0 -61 55 -82 116 -44 41 25
70 70 84 133 9 40 8 53 -5 72 -20 31 -60 31 -107 -1z"/>
<path d="M4112 3973 c-31 -6 -40 -28 -55 -138 -13 -94 -13 -95 7 -89 109 34
194 165 140 218 -15 15 -44 18 -92 9z"/>
<path d="M4447 3593 c-4 -3 -7 -28 -7 -54 0 -80 2 -78 -118 -74 -59 2 -93 1
-77 -1 38 -6 225 -63 225 -69 0 -2 -15 -1 -33 2 -28 4 -40 0 -71 -27 -20 -18
-43 -44 -52 -59 -31 -53 -45 -55 -145 -16 -50 19 -109 38 -131 41 -22 4 -46
13 -53 21 -12 11 -18 8 -38 -19 -73 -97 -112 -233 -105 -362 4 -71 10 -93 46
-169 72 -148 194 -258 322 -292 l48 -13 -50 85 c-27 47 -47 87 -43 91 3 4 9 2
13 -4 4 -6 32 -20 62 -32 31 -13 81 -43 110 -68 79 -64 149 -80 216 -48 59 28
131 100 146 146 l14 42 33 -58 c35 -61 58 -65 41 -6 -11 38 9 94 54 153 14 18
41 68 61 111 33 72 35 84 35 176 0 171 -51 290 -166 392 -58 51 -119 83 -197
104 -55 15 -129 19 -140 7z m-392 -310 c69 -22 219 -97 277 -139 26 -20 48
-37 48 -39 0 -2 -35 17 -77 41 -51 29 -102 49 -152 59 -42 9 -103 23 -136 33
-33 9 -68 16 -77 16 -22 -2 -23 14 -2 38 18 19 31 18 119 -9z m-154 -179 c7
-8 46 -34 87 -56 41 -23 100 -65 131 -94 54 -51 55 -53 24 -44 -18 5 -45 17
-60 28 -49 33 -62 34 -57 5 3 -15 7 -30 10 -35 3 -4 3 -8 1 -8 -3 0 -23 31
-46 69 -22 37 -55 82 -74 98 -18 16 -37 35 -41 41 -11 18 9 14 25 -4z"/>
<path d="M5427 8975 c-49 -56 -155 -214 -274 -410 -36 -60 -87 -141 -113 -180
-26 -38 -84 -133 -130 -210 -46 -77 -107 -178 -136 -225 -62 -101 -87 -157
-73 -166 16 -10 34 12 105 124 88 140 254 400 373 585 155 239 261 419 261
443 0 13 9 39 21 58 12 20 19 36 17 36 -1 0 -25 -25 -51 -55z"/>
<path d="M6133 8995 c-29 -13 -53 -26 -53 -29 0 -5 111 42 119 50 10 10 -18 1
-66 -21z"/>
<path d="M5035 8663 c-98 -159 -248 -400 -333 -538 -152 -244 -178 -295 -152
-295 26 0 88 81 199 260 183 294 398 637 464 738 57 89 59 93 41 107 -10 8
-24 15 -30 15 -6 0 -91 -129 -189 -287z"/>
<path d="M4325 8818 c-14 -11 -25 -25 -24 -31 3 -26 -3 -35 -46 -79 -39 -40
-46 -44 -55 -30 -7 14 -9 11 -10 -13 0 -16 9 -45 20 -63 75 -122 269 -80 296
65 13 71 -38 145 -114 161 -36 8 -46 7 -67 -10z"/>
<path d="M4928 8783 c-13 -16 -43 -59 -65 -98 -41 -71 -136 -227 -279 -458
-43 -71 -103 -163 -132 -204 -41 -58 -50 -78 -40 -85 27 -17 53 -1 95 57 45
63 72 107 295 470 75 121 150 244 169 273 27 44 30 55 18 63 -23 14 -34 11
-61 -18z"/>
<path d="M2919 8577 c-26 -17 -35 -31 -37 -58 -3 -30 1 -37 23 -47 89 -41 178
35 113 95 -37 33 -61 36 -99 10z"/>
<path d="M8227 8569 c9 -9 -7 -34 -63 -98 -41 -47 -81 -94 -90 -104 -12 -14
-19 -16 -29 -7 -10 9 -15 4 -20 -22 -4 -18 -25 -53 -46 -77 -57 -65 -50 -90
16 -55 20 11 58 17 111 18 71 1 86 4 121 29 47 33 88 103 98 168 8 57 -20 121
-65 144 -34 18 -48 19 -33 4z"/>
<path d="M2288 8477 c-16 -28 -53 -86 -84 -127 -31 -41 -78 -104 -103 -140
-25 -36 -50 -65 -56 -65 -5 1 -27 7 -48 14 -21 7 -49 11 -62 8 -14 -2 -27 1
-30 7 -16 34 6 -128 23 -166 24 -54 91 -131 145 -165 50 -32 150 -56 207 -51
117 11 235 101 291 220 28 61 34 87 37 159 5 104 -7 152 -54 215 -63 85 -115
108 -154 66 -30 -32 -56 -97 -53 -129 3 -40 -9 -43 -23 -5 -11 27 -11 26 -10
-10 1 -20 4 -39 8 -43 10 -11 -2 -34 -24 -46 -15 -8 -19 -8 -14 0 4 6 2 11 -3
11 -15 0 -14 -27 2 -33 6 -3 2 -6 -10 -6 -16 -1 -23 5 -23 18 0 11 -5 23 -10
26 -6 4 -8 11 -5 16 4 5 2 9 -4 9 -6 0 -8 7 -4 17 5 14 10 12 29 -13 23 -28
23 -28 17 -4 -11 41 -28 52 -47 31 -9 -10 -14 -25 -10 -35 4 -11 1 -16 -12
-16 -9 0 -15 -2 -12 -6 6 -5 -55 -74 -66 -74 -10 0 22 59 77 138 37 54 53 70
60 60 6 -9 7 -8 3 6 -4 10 -1 25 5 32 14 17 33 19 23 2 -4 -7 -3 -8 4 -4 7 4
12 14 12 22 0 8 6 27 14 42 26 52 29 72 9 72 -12 0 -28 -19 -45 -53z m62 -203
c0 -2 -7 -4 -15 -4 -8 0 -15 4 -15 10 0 5 7 7 15 4 8 -4 15 -8 15 -10z"/>
<path d="M5685 8369 c-40 -23 -75 -63 -75 -87 0 -13 13 -37 30 -54 25 -24 36
-29 58 -23 44 10 98 51 112 85 12 28 11 34 -7 58 -22 30 -82 41 -118 21z"/>
<path d="M4442 8283 c-93 -139 -163 -257 -158 -269 9 -24 34 -15 62 20 15 19
58 85 96 148 37 62 73 119 79 127 9 10 9 15 -2 22 -26 16 -38 9 -77 -48z"/>
<path d="M5865 8095 c-34 -33 -35 -107 -3 -129 34 -24 57 -19 94 18 41 41 45
82 11 114 -31 29 -72 28 -102 -3z"/>
<path d="M8407 8021 c-59 -38 -43 -44 18 -6 22 13 33 24 25 24 -8 0 -27 -8
-43 -18z"/>
<path d="M7656 8008 c-18 -26 -21 -84 -5 -93 20 -13 79 6 95 30 37 57 -51 118
-90 63z"/>
<path d="M8325 7970 c-3 -5 -2 -10 4 -10 5 0 13 5 16 10 3 6 2 10 -4 10 -5 0
-13 -4 -16 -10z"/>
<path d="M7482 7947 c-12 -13 -22 -31 -22 -41 0 -27 29 -76 46 -76 30 0 74 31
80 57 17 66 -58 109 -104 60z"/>
<path d="M8245 7926 c-11 -6 -35 -20 -53 -30 -19 -9 -32 -20 -29 -22 6 -6 76
32 97 52 17 16 13 17 -15 0z"/>
<path d="M8090 7841 c-66 -33 -82 -43 -77 -47 4 -4 110 49 126 62 12 10 -18 1
-49 -15z"/>
<path d="M7610 7720 c-220 -90 -280 -121 -280 -142 0 -10 7 -21 15 -24 20 -8
394 190 411 217 7 12 16 15 -146 -51z"/>
<path d="M7745 7649 c-11 -17 1 -21 15 -4 8 9 8 15 2 15 -6 0 -14 -5 -17 -11z"/>
<path d="M7580 7568 c-74 -38 -156 -76 -182 -86 -27 -9 -48 -22 -48 -30 0 -25
84 8 215 83 33 19 84 46 113 61 28 14 52 30 52 35 0 13 -3 12 -150 -63z"/>
<path d="M9294 7500 c-40 -10 -94 -29 -120 -43 -48 -23 -302 -111 -356 -122
-42 -8 -93 -59 -122 -120 -14 -30 -30 -55 -35 -55 -6 0 -36 7 -67 15 -104 27
-170 -8 -254 -136 -30 -46 -30 -46 -75 -39 -54 8 -132 -2 -172 -23 -64 -34
-143 -153 -143 -216 0 -57 67 -68 133 -22 23 15 62 38 86 50 24 13 73 52 110
87 52 51 70 63 86 58 77 -28 162 10 269 120 l69 71 62 -3 c45 -3 72 1 96 13
48 25 490 319 517 344 46 45 26 50 -84 21z"/>
<path d="M2668 6863 c6 -2 18 -2 25 0 6 3 1 5 -13 5 -14 0 -19 -2 -12 -5z"/>
<path d="M2580 6850 c-20 -6 -21 -8 -5 -8 11 0 31 4 45 8 20 6 21 8 5 8 -11 0
-31 -4 -45 -8z"/>
<path d="M2425 6806 c-110 -36 -156 -57 -138 -63 15 -5 138 36 214 72 74 34
44 31 -76 -9z"/>
<path d="M9593 6567 c-18 -6 -33 -15 -33 -20 0 -4 -9 -5 -20 -2 -11 3 -20 2
-20 -3 0 -5 -13 -7 -30 -4 -23 3 -30 0 -30 -12 0 -17 -15 -22 -24 -7 -3 5 -15
7 -26 4 -11 -3 -20 0 -20 6 0 16 -14 13 -37 -8 -12 -11 -24 -17 -29 -13 -4 4
-4 -1 -1 -11 5 -13 2 -17 -11 -15 -11 2 -17 -4 -17 -17 0 -13 -14 -27 -40 -42
-44 -24 -80 -30 -69 -12 4 7 1 10 -7 7 -8 -3 -15 -10 -15 -16 -3 -25 -5 -27
-13 -13 -7 10 -18 8 -57 -11 -162 -81 -294 -158 -294 -171 0 -5 6 -4 14 2 8 6
18 11 22 10 18 -3 54 14 48 22 -3 5 0 9 5 9 6 0 11 -7 11 -15 0 -8 -7 -15 -16
-15 -8 0 -12 -4 -9 -10 3 -5 23 -10 42 -10 20 0 63 -5 94 -12 54 -11 62 -10
108 12 28 13 60 32 71 42 11 10 23 19 27 20 25 5 222 142 217 150 -4 6 1 8 13
4 14 -4 43 9 97 45 67 45 77 55 73 76 -3 15 2 27 12 33 20 12 6 10 -36 -3z"/>
<path d="M9640 6550 c-9 -6 -10 -10 -3 -10 6 0 15 5 18 10 8 12 4 12 -15 0z"/>
<path d="M1032 6204 c-32 -22 -52 -67 -52 -114 0 -59 42 -100 100 -100 34 0
48 6 76 34 29 29 34 41 34 81 0 40 -5 52 -34 81 -38 38 -85 45 -124 18z"/>
<path d="M9500 5707 c-14 -6 -70 -32 -125 -58 -138 -64 -137 -64 -157 -30 -33
59 -107 84 -170 58 -28 -12 -37 -22 -40 -43 -2 -15 -9 -30 -17 -32 -10 -3 -12
1 -8 17 9 37 -14 11 -39 -43 -30 -64 -30 -109 -1 -166 17 -36 31 -48 62 -59
55 -19 126 -8 165 26 38 32 82 116 83 159 1 30 5 34 58 54 55 20 214 102 234
121 13 12 -14 10 -45 -4z"/>
<path d="M8310 5286 c-153 -43 -295 -167 -350 -307 -34 -85 -39 -236 -11 -329
12 -40 20 -74 18 -76 -23 -23 -461 -240 -626 -309 -166 -70 -225 -132 -189
-198 18 -35 41 -48 73 -42 34 6 742 357 796 395 19 13 36 28 37 32 2 5 22 -8
45 -28 23 -19 75 -52 115 -71 62 -31 86 -37 157 -41 80 -4 137 4 201 29 20 7
24 13 16 18 -10 6 -9 14 3 37 8 16 15 40 15 54 0 21 2 22 11 10 9 -12 10 -11
4 5 -3 11 -8 36 -11 55 -4 35 -3 35 14 14 9 -12 22 -29 27 -38 9 -14 14 -13
43 10 43 34 83 115 137 281 41 124 44 139 34 177 -31 116 -117 215 -233 270
-137 65 -227 79 -326 52z m60 -88 c0 -18 -11 -45 -26 -65 l-26 -35 25 -26 c69
-74 201 -324 157 -297 -10 6 -12 1 -8 -19 3 -14 4 -26 3 -26 -2 0 -24 39 -50
88 -59 107 -120 196 -150 216 -21 14 -25 12 -82 -49 -49 -51 -68 -64 -101 -70
-58 -9 -82 0 -82 34 0 42 45 121 97 172 51 50 167 108 216 109 24 0 27 -4 27
-32z"/>
<path d="M725 5196 c-33 -33 -42 -73 -24 -105 34 -61 119 -63 177 -5 32 32 33
34 17 63 -17 34 -80 71 -120 71 -14 0 -37 -11 -50 -24z"/>
<path d="M1135 4317 c-59 -30 -101 -59 -103 -69 -3 -14 1 -16 25 -9 99 29 223
97 223 122 0 21 -50 6 -145 -44z"/>
<path d="M1235 4250 c-37 -40 14 -69 63 -34 26 18 29 39 6 48 -28 11 -51 6
-69 -14z"/>
<path d="M1056 4139 c-19 -27 -10 -49 19 -49 25 0 55 29 55 53 0 26 -55 22
-74 -4z"/>
<path d="M1250 4107 c-40 -42 -9 -88 45 -67 31 12 40 32 26 58 -16 30 -48 34
-71 9z"/>
<path d="M8165 4090 c-3 -5 -1 -10 4 -10 6 0 11 5 11 10 0 6 -2 10 -4 10 -3 0
-8 -4 -11 -10z"/>
<path d="M1443 4054 c-18 -29 -9 -56 21 -62 37 -8 62 48 34 76 -19 19 -36 14
-55 -14z"/>
<path d="M888 4049 c-19 -11 -24 -44 -9 -54 13 -8 59 15 65 32 12 31 -20 43
-56 22z"/>
<path d="M7795 4007 c-82 -32 -616 -291 -1745 -845 -205 -101 -358 -188 -373
-214 -15 -23 34 -85 87 -109 53 -24 93 -24 166 1 89 30 1896 937 1935 971 37
33 85 120 85 154 0 56 -69 75 -155 42z"/>
<path d="M1088 4009 c-32 -18 -42 -48 -22 -70 9 -10 25 -19 34 -19 23 0 53 34
48 56 -5 26 -40 45 -60 33z"/>
<path d="M713 3953 c-7 -2 -13 -16 -13 -29 0 -20 5 -24 31 -24 27 0 30 3 27
27 -3 27 -20 37 -45 26z"/>
<path d="M1265 3940 c-17 -18 -17 -21 -1 -45 9 -14 25 -25 35 -25 21 0 51 30
51 51 0 40 -55 52 -85 19z"/>
<path d="M886 3888 c-21 -30 -20 -35 8 -53 48 -32 90 20 48 58 -25 23 -38 21
-56 -5z"/>
<path d="M1108 3832 c-31 -18 -36 -43 -13 -62 23 -19 67 13 63 47 -4 33 -16
37 -50 15z"/>
<path d="M725 3794 c-23 -23 -1 -84 31 -84 31 0 47 83 18 94 -24 9 -31 8 -49
-10z"/>
<path d="M6640 3739 c-63 -34 -126 -69 -140 -79 -22 -15 -319 -188 -460 -268
-58 -33 -57 -42 3 -17 46 19 276 146 392 217 50 30 131 76 180 102 86 45 171
105 150 106 -5 0 -62 -28 -125 -61z"/>
<path d="M910 3725 c-17 -21 -8 -50 18 -53 30 -5 52 14 52 44 0 20 -5 24 -29
24 -16 0 -34 -7 -41 -15z"/>
<path d="M580 3674 c0 -8 5 -12 10 -9 6 3 10 10 10 16 0 5 -4 9 -10 9 -5 0
-10 -7 -10 -16z"/>
<path d="M736 3614 c-6 -17 9 -54 23 -54 16 0 43 40 38 55 -8 20 -53 19 -61
-1z"/>
<path d="M8990 3520 c-9 -6 -10 -10 -3 -10 6 0 15 5 18 10 8 12 4 12 -15 0z"/>
<path d="M8940 3495 c-14 -8 -20 -14 -14 -15 5 0 19 7 30 15 24 18 16 19 -16
0z"/>
<path d="M8100 3455 c-110 -49 -408 -175 -414 -175 -21 0 -671 -293 -1032
-466 -155 -74 -284 -134 -287 -134 -3 0 -52 -22 -109 -49 -122 -59 -324 -150
-425 -194 -40 -17 -71 -33 -68 -35 10 -10 141 42 302 120 11 6 26 7 32 4 6 -4
11 -3 11 2 0 13 78 44 91 37 5 -4 9 -3 9 2 0 4 11 9 25 9 14 1 22 -2 19 -7 -3
-5 2 -9 10 -9 9 0 16 9 16 20 0 15 9 22 30 27 17 3 33 10 36 14 3 5 18 9 35 9
16 0 29 5 29 11 0 13 41 59 53 59 5 0 5 -4 2 -10 -3 -5 -2 -10 4 -10 5 0 13 5
16 10 3 6 15 10 25 10 10 0 25 6 32 13 9 8 43 12 106 11 52 -1 92 2 92 8 0 5
4 6 10 3 5 -3 34 1 64 9 48 12 57 12 67 0 13 -16 9 -24 -13 -28 -20 -2 -110
-57 -105 -62 3 -3 74 29 158 70 85 41 148 75 142 75 -7 1 -13 11 -12 24 0 12
3 16 6 10 7 -19 23 -16 23 5 0 23 19 42 41 42 10 0 28 13 42 29 17 21 40 32
80 42 32 6 57 16 57 21 0 4 9 8 19 8 11 0 22 6 24 13 4 9 8 8 17 -3 9 -11 13
-12 17 -2 2 6 11 12 19 12 20 0 94 38 94 49 0 13 87 71 108 71 11 0 30 8 43
18 40 29 106 62 125 62 24 1 73 43 77 67 7 44 72 103 119 107 3 1 10 4 14 9 4
4 20 7 36 7 15 0 28 5 28 11 0 6 8 8 19 4 13 -4 25 2 38 17 22 27 56 48 78 48
8 0 15 5 15 10 0 14 -6 12 -90 -25z m-1095 -665 c3 -5 -1 -10 -9 -10 -9 0 -16
5 -16 10 0 6 4 10 9 10 6 0 13 -4 16 -10z m-62 -37 c-13 -2 -23 -8 -23 -13 0
-5 -7 -7 -15 -4 -28 11 -15 24 23 23 23 -1 28 -3 15 -6z"/>
<path d="M8885 3470 c-3 -6 1 -7 9 -4 18 7 21 14 7 14 -6 0 -13 -4 -16 -10z"/>
<path d="M9175 3411 c-38 -15 -135 -57 -215 -93 -80 -37 -226 -102 -325 -146
-206 -91 -391 -178 -720 -335 -126 -60 -320 -152 -430 -204 -110 -52 -364
-175 -565 -273 -201 -98 -426 -206 -500 -240 -74 -34 -169 -78 -210 -97 -41
-19 -122 -60 -180 -91 -79 -42 -99 -58 -83 -60 13 -2 58 12 100 31 104 46 215
95 343 150 265 114 934 428 1505 707 182 89 334 161 815 385 241 112 540 273
540 291 0 5 6 7 -75 -25z"/>
<path d="M7975 3040 c-16 -7 -17 -9 -3 -9 9 -1 20 4 23 9 7 11 7 11 -20 0z"/>
<path d="M7440 2989 c0 -5 5 -7 10 -4 6 3 10 8 10 11 0 2 -4 4 -10 4 -5 0 -10
-5 -10 -11z"/>
<path d="M7770 2940 c-115 -58 -135 -80 -37 -38 53 22 180 98 162 97 -5 -1
-62 -27 -125 -59z"/>
<path d="M6695 2630 c-8 -13 15 -13 35 0 12 8 11 10 -7 10 -12 0 -25 -4 -28
-10z"/>
<path d="M6650 2610 c-35 -20 -89 -40 -108 -40 -12 0 -24 -4 -27 -10 -3 -5
-21 -10 -40 -10 -19 0 -38 -6 -42 -13 -11 -17 -77 -39 -97 -31 -10 4 -18 0
-22 -10 -5 -13 -14 -15 -42 -10 -25 5 -33 3 -28 -5 4 -7 2 -9 -8 -5 -9 3 -17
-2 -21 -15 -3 -12 -12 -21 -19 -21 -7 0 -27 -11 -46 -25 -19 -14 -44 -25 -56
-25 -12 0 -27 -7 -34 -15 -7 -8 -18 -15 -24 -15 -6 0 -65 -30 -131 -66 -66
-37 -131 -66 -145 -66 -25 0 -121 -41 -150 -64 -8 -6 -28 -14 -45 -17 -16 -3
-48 -10 -70 -17 -22 -6 -58 -16 -80 -21 -22 -5 -58 -19 -81 -29 -22 -11 -50
-20 -62 -20 -11 0 -24 -4 -27 -10 -9 -14 -42 -12 -49 3 -3 6 -3 -10 0 -38 13
-115 82 -175 201 -175 38 0 83 8 114 19 64 25 155 95 163 125 10 40 93 144
138 173 24 15 45 30 48 34 3 3 23 12 45 21 69 27 398 190 440 217 22 15 106
60 187 101 81 41 148 78 148 83 0 9 -11 8 -30 -3z"/>
<path d="M5355 2580 c-3 -6 1 -7 9 -4 18 7 21 14 7 14 -6 0 -13 -4 -16 -10z"/>
<path d="M5150 2485 c-102 -47 -207 -97 -235 -111 -27 -15 -116 -61 -197 -104
-81 -42 -154 -83 -163 -90 -8 -7 -48 -30 -88 -51 -39 -21 -67 -38 -62 -39 6 0
57 26 115 56 109 58 336 177 405 213 40 20 161 77 313 146 45 21 87 44 93 52
6 7 10 13 8 12 -2 0 -87 -38 -189 -84z"/>
<path d="M1573 2522 c9 -10 17 -33 17 -51 0 -36 -17 -74 -29 -67 -4 3 -7 -5
-7 -17 1 -17 -5 -22 -21 -21 -13 0 -23 -4 -23 -9 0 -5 -11 -6 -24 -3 -15 4
-39 -2 -64 -15 -27 -15 -47 -19 -59 -14 -10 5 -21 7 -25 7 -11 -3 -10 56 1 60
5 2 12 22 15 46 3 34 2 41 -8 33 -7 -6 -11 -22 -9 -35 3 -13 -1 -27 -7 -31 -9
-5 -10 -1 -6 16 6 20 3 18 -11 -6 -11 -20 -17 -52 -18 -96 0 -59 4 -72 31
-110 41 -57 107 -91 173 -91 50 0 104 24 108 48 1 7 18 38 38 70 19 33 35 65
35 72 0 7 4 11 9 8 4 -3 13 5 18 17 11 24 -6 99 -30 127 -16 21 -78 65 -101
74 -19 6 -19 6 -3 -12z"/>
<path d="M1448 2373 c7 -3 16 -2 19 1 4 3 -2 6 -13 5 -11 0 -14 -3 -6 -6z"/>
<path d="M4958 2292 c-51 -27 -154 -81 -228 -121 -74 -40 -164 -84 -200 -98
-77 -30 -116 -49 -473 -232 -276 -141 -368 -191 -355 -191 11 0 332 151 598
282 135 66 301 148 370 181 69 33 143 72 165 87 22 15 77 46 121 69 45 23 90
48 100 56 39 29 -7 14 -98 -33z"/>
<path d="M3925 2224 c-195 -112 -416 -221 -466 -229 -27 -5 -52 -20 -82 -48
-24 -23 -63 -55 -88 -71 -71 -44 -94 -96 -69 -162 9 -23 15 -26 43 -21 17 3
88 35 157 72 69 37 193 104 275 148 149 79 351 199 412 244 17 14 39 35 48 49
14 22 14 27 0 54 -15 30 -43 50 -67 50 -7 0 -80 -39 -163 -86z"/>
<path d="M4955 2189 c-80 -40 -93 -56 -25 -29 55 21 100 46 100 55 0 10 -16 4
-75 -26z"/>
<path d="M4949 2073 c-13 -16 -12 -17 4 -4 16 13 21 21 13 21 -2 0 -10 -8 -17
-17z"/>
<path d="M4745 2063 c-141 -55 -583 -270 -675 -328 -20 -13 -68 -39 -108 -59
-86 -43 -95 -56 -14 -20 31 14 68 30 82 36 14 5 32 15 40 22 8 7 40 23 70 35
30 13 156 74 280 136 124 62 254 125 290 140 106 45 137 78 35 38z"/>
<path d="M4884 2033 c-21 -14 -74 -41 -117 -60 -43 -18 -151 -71 -240 -117
-89 -46 -209 -107 -266 -135 -57 -29 -101 -54 -98 -57 6 -6 245 103 362 166
50 26 153 80 230 119 77 40 149 81 160 92 27 27 15 24 -31 -8z"/>
<path d="M4747 1858 c-31 -17 -55 -33 -53 -35 4 -4 86 36 116 56 32 23 -8 9
-63 -21z"/>
<path d="M4570 1765 c-58 -30 -120 -59 -137 -65 -18 -6 -33 -15 -33 -20 0 -5
15 -3 34 5 67 28 235 115 241 125 8 13 15 16 -105 -45z"/>
<path d="M4790 1792 c-25 -16 -72 -43 -105 -61 -56 -31 -106 -67 -57 -42 94
49 234 131 222 131 -8 0 -35 -13 -60 -28z"/>
<path d="M4080 1619 l-25 -20 33 16 c17 8 32 18 32 20 0 10 -16 4 -40 -16z"/>
<path d="M4480 1625 c-14 -8 -20 -14 -15 -14 6 0 21 6 35 14 14 8 21 14 15 14
-5 0 -21 -6 -35 -14z"/>
<path d="M4188 1566 c-79 -45 -86 -55 -13 -18 70 36 94 52 80 52 -5 -1 -36
-15 -67 -34z"/>
<path d="M3951 1559 c-13 -5 -21 -12 -18 -15 3 -3 18 1 34 10 31 17 21 20 -16
5z"/>
<path d="M4303 1534 c-24 -14 -43 -28 -43 -31 0 -4 85 42 99 53 16 14 -22 -1
-56 -22z"/>
<path d="M7918 1364 c-2 -1 -52 -4 -111 -5 -59 -1 -110 -6 -113 -11 -3 -5 -12
-4 -20 3 -9 7 -14 8 -14 1 0 -6 -10 -8 -25 -4 -14 4 -63 4 -108 1 -45 -4 -86
-3 -92 1 -5 4 -46 3 -90 -2 -44 -5 -170 -10 -280 -12 -110 -1 -240 -8 -290
-14 -49 -6 -129 -14 -177 -17 -48 -3 -111 -10 -140 -16 -29 -6 -111 -14 -183
-19 -283 -19 -552 -40 -580 -45 -16 -3 -55 -8 -85 -11 -30 -2 -73 -7 -95 -10
-22 -3 -92 -12 -155 -19 -354 -41 -468 -58 -835 -127 -128 -24 -120 -23 -250
-37 -55 -7 -163 -22 -240 -36 -77 -13 -196 -33 -265 -44 -139 -23 -844 -125
-1015 -147 -60 -8 -225 -33 -365 -56 l-255 -43 90 -3 c50 -2 160 4 245 12 243
24 707 49 1115 61 348 10 518 16 735 25 277 12 746 12 925 0 167 -11 824 -24
1015 -20 74 1 162 3 195 3 33 0 141 0 240 0 245 2 477 1 680 -2 94 -1 229 -2
300 -3 193 -1 238 -3 242 -14 2 -7 146 -11 163 -4 3 1 29 4 58 5 29 2 60 9 68
15 7 7 14 8 14 3 0 -10 37 -10 60 0 8 4 73 6 144 4 71 -2 154 1 185 5 31 5 74
10 96 12 22 2 47 6 55 9 40 15 88 17 93 5 4 -9 8 -10 14 -2 7 10 73 19 186 27
20 1 39 -2 41 -8 3 -7 7 -7 13 0 4 6 28 12 53 14 25 2 62 10 82 18 26 10 42
12 55 5 12 -7 25 -7 36 -1 11 7 17 6 17 -1 0 -5 5 -10 10 -10 6 0 10 7 10 15
0 18 1 18 37 3 33 -13 64 -11 76 6 6 8 10 8 14 -1 5 -15 25 1 36 27 3 9 6 6 6
-10 1 -15 4 -20 9 -14 7 12 84 10 104 -2 8 -5 9 -1 4 11 -7 18 -6 18 13 1 18
-16 22 -17 50 -3 27 14 30 13 34 -2 4 -14 5 -14 6 2 1 10 9 17 21 17 11 0 20
5 20 10 0 6 9 10 20 10 11 0 20 -4 20 -9 0 -5 9 -7 20 -4 11 3 20 9 20 14 0 5
7 9 16 9 9 0 23 8 30 18 8 10 13 12 14 5 0 -7 7 -10 15 -7 13 5 13 9 3 22 -11
13 -10 15 12 8 14 -4 44 -9 66 -12 38 -4 42 -2 48 21 4 14 4 30 1 35 -11 18
19 90 37 90 10 0 18 4 18 9 0 10 -59 56 -64 50 -1 -2 -7 -15 -14 -29 -11 -25
-11 -25 -6 5 4 25 3 27 -6 13 -13 -21 -30 -24 -30 -5 0 8 -9 13 -22 12 -13 -1
-29 3 -37 8 -10 9 -17 6 -27 -8 -12 -17 -16 -17 -24 -6 -7 13 -11 13 -26 0
-16 -13 -16 -12 -5 9 7 14 8 22 1 22 -5 0 -10 -4 -10 -9 0 -5 -10 -11 -22 -15
-18 -5 -20 -8 -9 -15 9 -6 10 -11 2 -15 -6 -4 -11 -2 -11 4 0 7 -7 9 -16 6 -8
-3 -13 -2 -10 3 3 5 -20 11 -52 14 -31 4 -76 8 -100 11 -24 3 -55 12 -69 21
-13 9 -31 14 -39 11 -8 -3 -14 -1 -14 4 0 6 -5 10 -11 10 -5 0 -7 -5 -3 -11 4
-8 -1 -9 -17 -3 -13 4 -36 9 -51 9 -16 1 -37 10 -48 20 -19 18 -20 17 -20 -6
-1 -21 -2 -22 -13 -8 -21 27 -50 37 -135 44 -45 4 -82 12 -82 17 0 5 -4 6 -10
3 -5 -3 -10 0 -10 7 -1 8 -6 6 -15 -5 -14 -20 -55 -16 -55 6 0 6 -6 2 -14 -8
-12 -16 -16 -17 -30 -6 -10 8 -26 10 -46 6 -23 -5 -30 -3 -28 7 2 10 -12 13
-58 13 -39 0 -68 5 -79 15 -13 10 -16 11 -11 2 7 -11 -8 -12 -74 -8 -45 3 -87
9 -93 13 -13 9 -112 31 -140 32 -11 1 -15 -3 -11 -10 4 -7 -3 -6 -17 2 -14 8
-45 12 -74 10 -27 -2 -66 -3 -85 -2 -71 4 -379 8 -382 5z m515 -581 c-7 -2
-19 -2 -25 0 -7 3 -2 5 12 5 14 0 19 -2 13 -5z"/>
<path d="M9410 1241 c0 -6 4 -13 10 -16 6 -3 7 1 4 9 -7 18 -14 21 -14 7z"/>
<path d="M10100 1041 c-7 -13 -7 -22 0 -26 5 -3 10 0 10 9 0 8 5 16 12 18 9 3
9 6 1 11 -7 4 -17 -1 -23 -12z"/>
</g>
</svg>
